<?xml version="1.0" encoding="utf-8"?>
<!-- Generator: Adobe Illustrator 24.2.3, SVG Export Plug-In . SVG Version: 6.00 Build 0)  -->
<svg version="1.1" id="Capa_1" xmlns="http://www.w3.org/2000/svg" xmlns:xlink="http://www.w3.org/1999/xlink" x="0px" y="0px"
	 viewBox="0 0 299.2 67.4" style="enable-background:new 0 0 299.2 67.4;" xml:space="preserve">
<style type="text/css">
	.st0{fill:#FFFFFF;}
</style>
<polyline class="st0" points="217.9,60.4 0,60.4 0,67.4 217.9,67.4 217.9,60.4 "/>
<polyline class="st0" points="299.2,60.4 225.8,60.4 225.8,67.4 299.2,67.4 299.2,60.4 "/>
<path class="st0" d="M253.6,46.7c0.2,0,1.1-0.9,0.9-0.2C254.3,46.4,253.6,47.3,253.6,46.7z M264.5,48.8c-0.4,0.2-0.9-0.6-1.3-0.4
	l0.2-0.2c-0.9,0,0.4,0.6,0.2,0.9l0.2-0.2c0.6,0.2,0.2,0.4,0.6,0.6C265,49.4,264.7,48.8,264.5,48.8z M255.1,46.4
	c0.2-0.4,0-0.4-0.2-0.4C254.9,46.4,254.9,46.4,255.1,46.4z M263,51.2v-0.4h-0.2c-0.2,0-0.6-0.2-0.6-0.2v-0.2v0.2
	c0,0.2-0.2,0.6,0.2,0.9c-0.2-0.2,0-0.6,0.4-0.4L263,51.2z M263.5,46l0.6,0.6l-0.2,0.4L263.5,46z M267.5,38.7c0-0.2,0.2-0.2-0.2-0.4
	c-0.2-0.2,0.2-0.2,0-0.4C266.7,38.1,267.5,38.5,267.5,38.7L267.5,38.7C267.5,39,267.5,39,267.5,38.7z M266.2,38.3
	c0.2,0.2-0.9,0.6,0,1.3C265.2,39.4,265.8,38.5,266.2,38.3z M259.8,49c0.2-0.2,0.9,0.2,0.6,0.4h0.9c-0.6,0-0.4-0.6-0.6-0.9
	C259.8,48.6,260.2,48.8,259.8,49z M253,40c-0.2,0.2-0.2,0.4-0.4,0.4h-0.2C252.1,40.2,252.8,40,253,40z M255.5,41.1
	c0,0.2,0,0.2,0,0.4l0.2-0.2C255.8,41.1,255.5,41.1,255.5,41.1v-0.4c0.2-0.6,0.9-0.6,1.3-0.9c-0.2,0-0.9,0.4-0.9,0
	c0.2-0.2,0.2-0.2,0.2-0.2l-0.2-0.4c-0.9,0.4-0.6,0.9-0.4,1.3c0,0.2-0.2,0.2-0.2,0.4C255.3,41.3,255.3,41.1,255.5,41.1z M254,39.2
	c0.4-0.6,0.9-1.3,1.3-0.6c-0.4,0.6-0.4,0.4-0.9,1.3c-0.2,0-0.2-0.4-0.2-0.4c0.2,0,0.2,0.4,0.4,0C254.5,39.2,254.3,39,254,39.2
	c-0.2,0.2-0.2,0.4-0.4,0.4C253.6,39.4,253.8,39.2,254,39.2z M253.6,39l0.6-0.6l-0.2-0.2L253.6,39z M257.7,40.9
	c0-0.2-0.6-0.2-0.9,0.2L257.7,40.9z M256.4,41.3l-0.9,0.6h0.2L256.4,41.3z M259,44.9l0.9,0.2c0.9-0.9-0.4-0.4-0.4-0.9
	C258.8,44.7,259.2,44.7,259,44.9z M259.6,50.1c-2.1-0.6,3.6,1.5,1.5,0.4c-0.4,0,0.2,0.6-0.6-0.2C260.9,49.7,259.8,49.7,259.6,50.1
	c-0.2,0-0.2,0.2-0.2,0.2l0,0C259.6,50.1,259.6,50.1,259.6,50.1z M266.9,37.7l-0.2,0.6L266.9,37.7L266.9,37.7z M270.7,33.4l-0.4,0.2
	c0,0-0.2-0.9,0.2-1.1c-1.7-0.6,0.2,0.4-0.9,0.4c0.6-0.6-0.4-1.1-1.1-1.5c0.6,0.9-0.4,1.3,1.3,2.4C269.7,33.4,271.6,34.2,270.7,33.4z
	 M274.8,27l0.4-0.9v0.2l0,0l0.2,0.6l-0.4-0.4L274.8,27z M275.9,26.3v-0.6l0.2,0.6V25C275.2,24.8,275.4,25.7,275.9,26.3z M276.5,26.1
	c0,0.2,0.4,0.2,0.4,0.6C276.7,26.5,276.5,26.3,276.5,26.1c0,0,0-0.2,0-0.4C276.5,25.9,276.5,25.9,276.5,26.1z M281.7,22.5
	c0,0.2,0.2,0.2,0.2,0.4c0,0,0,0.2,0,0.4c0,0,0-0.2,0-0.4c0-0.2,0.4-0.2,0.6-0.2c0.2,0.4-0.2,0.4,0,0.6c0.9,0.6,0.2-2.1,1.3,0.2
	c0-0.4,0.2-1.3-0.2-1.5C283.1,22.5,282.3,22.7,281.7,22.5l-0.2-0.2L281.7,22.5z M285.9,20.5L285.9,20.5l-0.4-0.2L285.9,20.5z
	 M290.2,19.3l-0.4,0.2l0.4,0.6V19.3z M278.2,27.6c-0.2,0,0.4-0.4,0.6-0.4C279.1,27.4,278.7,28,278.2,27.6z M276.7,30.2l0.4-0.4
	C276.9,29.7,276.3,30,276.7,30.2z M279.7,27.4v0.4c0.2,0.2,0.2,0.2,0,0.4v-0.4C279.5,27.6,279.1,27.4,279.7,27.4z M276.5,30.6h-0.2
	c-0.4-0.2-1.3-0.9-0.9,0.2l0.9-0.2C276.5,30.8,276.5,30.8,276.5,30.6z M274.8,28.3c0,0.6,0.2,1.1,0.6,2.1c0.6,0-0.2-1.1-0.6-1.5
	c0-0.6,0.4,0,0.6-0.2L274.8,28.3z M276.3,29.5c0-0.6,0-1.5-0.4-1.9c0.6,0.6,0.6,1.5,0.6,1.5C276.3,29.3,276.3,29.5,276.3,29.5z
	 M265.6,44.7c0-0.4-1.1-1.3-0.2-1.5l0.2,0.4h0.2l0.4,0.4C264.7,43.4,265.6,44.5,265.6,44.7z M274.8,32.5c0.2-0.2,0-1.1-0.6-1.5
	c-0.2,0.4-0.6,0.6,0,1.3C273.9,32.1,275,33.4,274.8,32.5z M273.5,34.2L273.5,34.2l-0.2-0.6L273.5,34.2z M268.8,41.3
	c0.4,0.4,0.4,0.9,0.6,1.1c-0.2,0-0.6-0.4-0.9-0.6v0.2C267.5,41.3,269,41.9,268.8,41.3z M265.2,48.2L265.2,48.2L265.2,48.2
	c0.2,0.4-0.9,0,0,0.9C266.2,49.2,265.6,48.6,265.2,48.2z M263,41.9l-0.2-0.6h-0.2L263,41.9L263,41.9z M265.2,38.3l-0.6-0.2l0.2,0.4
	L265.2,38.3z M286.6,22.9c0-0.4-0.2,0-0.4,0l0.4-0.2C286.6,22.9,286.6,22.9,286.6,22.9z M270.1,41.5L270.1,41.5c0-0.2,0-0.2,0-0.4
	V41.5C270.1,41.3,269.7,41.1,270.1,41.5z M265.4,53.5l-0.9-0.6c0,0,0.2,0.2,0.2,1.3c0.2,1.1-0.2,0-0.2-0.2c-0.2-0.2-0.6,0-0.9,0
	s0,0.2,0,0.4s0,0-0.2,0.2c-0.2,0.2-0.2-0.2-0.2-0.2s0,0-0.2-0.4c-0.2-0.4-0.2,0-0.6,0.2c-0.2,0.2,0-0.2,0-0.2l-1.1-0.2
	c0,0,0,0.4-0.2,0.9c-0.2,0.4,0,0-0.2,0s0-0.4,0-0.4s-0.2,0-0.6-0.2c-0.4,0,0,0,0,0.2c0,0.2,0,0-0.2,0s-0.4-0.4-0.4-0.4l-0.2-0.6
	v-0.4l-0.2,0.2c0,0.2,0.2,0.2,0.2,0.2s-0.6,0-0.9,0s0-0.2,0-0.2s-0.4,0.2-0.6,0.2c-0.2,0,0-0.2,0-0.2h-0.2c0,0,0,0-0.2,0
	s-0.4-0.6-0.4-0.6v-0.9l-0.6,0.4l0.4-1.1l-0.9,1.1l-0.6-1.3l0.4,0.6l-0.9-0.6v-1.1c0.4-0.2-0.6,0-0.6,0l0.4-0.2h-0.4l0.4-0.4
	c-0.4,0-0.2-0.9-1.1-0.4l0.9-0.6l-0.9,0.2l0.6-0.2c-0.2-0.6-1.5-0.6-1.5-0.6l0.2-0.2c0-0.2-0.2,0-0.4,0l0.4-0.4
	c-0.9-0.4-0.4-1.7-1.7-1.9c-0.2-0.2,0.2,0,0.4-0.2c0-0.4-0.4-0.4-0.6-0.2c0.6-0.6,0.9-0.2,0.9-0.9c-0.4,0.2,0.6-0.6,0-0.6l-0.9,0.9
	c-0.2-0.2,0.4-0.6,0-0.9c-0.6,0.2-0.2,1.3-0.9,1.1c-0.2-0.2,0.6-2.6-0.4-2.6c-0.4-0.9,1.1-1.3,0.2-1.5l0.9-0.2
	c0-0.4,0.4-0.9-0.2-0.9c-0.4,0.2-0.9,0.6-1.1,0.6c1.3-0.2-0.2-1.5,1.1-1.9l-0.4-0.2l0.2-0.2c-0.2,0-0.2-0.2-0.4-0.2
	c0.4,0,1.1,0.2,1.1-0.6c-0.2-0.2-0.4-0.4-0.6-0.4c0.4-0.4,0.2-0.9,0.6-1.3c0.9,0,1.7,0,2.6,0c-0.2,0.2-0.6,0.4-0.6,0.6
	c0.4,0.6,0.6-0.4,0.9,0.4l-0.4,0.2c0.2-0.2,0.2-0.2,0.2-0.2c0-0.4-0.2,0-0.4,0.2c-0.2,0.6,0.4,0.6,0.9,0.2c0.6,0.4-0.4,1.1-0.4,1.3
	c0.9-0.6,0.9,0.6,1.5,0.4l-0.6,0.4c0,0.9,0.6,0.6,1.1,0.6l-0.4,0.4c0.6,0.2-0.2,1.9,1.5,0.9l-0.2,0.2c0.2,0.2,0.2,0.9,0.9,0.6
	c-0.2,0.2-0.2,0.4-0.2,0.6c0.6-0.4,0.4,0.2,0.6,0.4c-0.4,0-0.9,0.9-1.3,0.9c-0.2,1.1,1.1-0.4,1.5,0c0,0.6-0.6,0.2-0.9,0.4
	c1.1,0.2-0.4,2.8,1.5,1.7l0.2-0.6c0.6,0,0.6,0.2,0.4,0.2c0-0.2-0.2,0-0.4,0c0,1.5,2.1,0.4,2.6,1.7c-0.4,0-0.6,0-0.9,0.2
	c0,0.6,1.9-0.4,1.7,0.9h-0.4c0.4-0.2,1.3-0.2,1.3-0.2c-1.5,0.2,0.6,2.6-1.7,3c0.4,0.2,0.6,1.5,0.9,0.9c0-0.2,0.2-0.6-0.4-0.6
	c-1.1,0-2.1,1.3-1.1,0c0.2-0.4,0-1.1-0.6-1.5c-0.6,0-1.3,0.4-1.5,0.6c-0.6,0.6-0.4,0.6-0.4,0.6v-0.2c0-0.2,0.2-0.2,0.2-0.2
	c1.1,0,0.9,0.9,1.7,1.1c0.2-0.2-0.6-0.9-0.2-1.3c-0.9-0.4-2.1,0.2-2.1-0.9h0.4c0,0-0.4,0.2-0.2,0.2c0.4,0.4,0.6,0,0.9,0.2l0.2-1.1
	c-0.9-0.4-0.9,0.2-1.1,0.2c0.6-0.6,2.4-1.1,1.9-1.9l0.2,0.2c-0.2-1.3,1.9,0.2,0.9-1.1c0.4-0.2,0.9,0.6,1.3,0c0-0.2-0.2-0.2-0.4-0.2
	c0-0.9,1.1,0.2,0.4-0.9l0.9,0.6c-0.2-1.1-1.5-2.8-0.6-3.2c0.6,0.4,0.4,0.9,0.9,1.3c-0.9-1.5,1.1-2.1,0.9-3.2
	c-0.6-0.2-1.1-1.3-1.9-1.1c0.9,0.6,0,0.6,0,0.9c-1.7-1.7,2.1-1.3,0.4-2.4l0.6,0.2c0-0.2-0.4-0.9-0.6-0.6l1.1-0.6
	c0.2,0.6,1.1,1.9,0.2,1.7c0.6,0.6,0.6,0,1.3,0.6c-0.9-1.3,0.6,0,0.9-0.9c-1.1-0.4-0.9-1.5-1.5-1.7c0.2,0,0.2-0.9,0-1.3
	c0.2-0.4,1.5-0.6,1.5-1.5c0.2,0.4,0.2,1.1,0.9,1.5c-0.2-0.4,0-0.9,0.9-0.4c0.6,1.7-1.7-0.9-1.5,0.6c0.6,0.9,0.6,1.1,0.6,1.7
	c0.6,0.2,0.6,0.4,1.3,0.6c-1.3-1.7,0.9-1.5,0.4-2.8c-0.2-0.6-1.5-1.3-1.1-1.9l-0.9,0.2c0.9-0.2-0.4-0.4-0.2-1.1l0.4,0.6
	c0.4-0.2,0.4-0.4,0-0.9l0.6,0.9c0.2,0,0.6-0.2,0-0.6c0.2,0.2,0.4,0.2,0.6,0.4c-0.2-0.2-0.2-0.2,0-0.4c0,0.2-0.2,0.2,0.2,0.4
	c0.4-0.9,1.1,0.4,1.3,0c0.2,0.2,0.4,0.2,0.6,0.2c-1.3-1.1-0.6-1.9-1.1-2.8l0,0v-1.1c0,0.2,0.4,0.4,0.6,0.2l0,0
	c0.4,0,1.1,1.3,1.3,0.4v-0.6c0,0,0.2,0.2,0.4,0.2v-0.6c1.5,0.6,0.2-1.5,1.3-1.5c-0.2,0-0.4,0.4,0,0.6c0.2,0,0.2-0.2,0.2-0.4v0.2
	l0.2-1.7c0.2,0.4-0.2,1.1,0.4,1.3c0.6,0.4,0.4-0.4,0.6-0.6c-0.2-0.2-0.9-0.2-0.6-0.6c0.2,0.2,0.9,0.2,0.9,0.4c0-0.6,0.4-1.3,0.2-2.1
	c0.2,0,0.2,0.4,0.2,0.4h-0.2c0,0.4,0.6,0.9,0,0.9c0.9,1.1,0.9-0.2,1.3-0.4v1.3c2.1,0.6,2.1-2.1,3.4-2.8c-0.6-0.2-0.6,0.4-1.3-0.4
	c0.4-0.9,0.4-0.6,1.1-1.3l0,0c0.6,0.2,0.6-1.1,1.3-0.2c0.2,0.6-0.9-0.2-0.2,0.9l0.9-0.6c0,0.9-0.9,0.6-1.1,1.1
	c-0.2,0,0.4-0.4-0.2-1.1c-0.9,0.6-0.6,1.3-0.2,2.6c0.2,0.9,0.9,0.4,1.1,0.4c-0.2-1.5,0.2-2.4,1.3-2.4l0.9,0.6c0-0.9-1.1-2.4-0.2-2.6
	v0.6c0.2,0.2,0.4,0.2,0.4,0.2c0,0.6-0.2,1.3-0.2,1.9c1.1,1.1,0.9-1.3,1.3-1.9c0,0.2-0.2,0.4,0,0.6c1.1-0.2,1.3-2.1,2.1-2.6
	c0.6,0.4-0.4,0.6,0,1.5c0.2-0.4,1.1,0.2,0.9-0.6c0.2,1.3,0.9-0.2,0.6,1.1c1.5,0,2.8-1.5,4.3-2.4c0,0.4,0,0.6,0.2,0.9
	c-0.4,0-1.1,0.6-1.3,1.5c0.4,0.4,0.6-1.1,0.6-0.6c0,0.2-0.4,0.4-0.2,1.1c0.4,0.6,0.6-0.4,0.9-0.6l-0.2-0.2c0.9-1.1,0.2-2.1,1.3-1.9
	c0.4,0.6,0,0.6,0.2,1.5c0.2-0.4,1.1,0.4,1.3-0.4h-0.6c0.4-0.2,0.9-0.2,1.1-0.6c0,0.2,0,0.4-0.2,0.4c0.2-0.2,0.9-0.2,0.9-0.9l0.2,1.1
	c-0.2-0.4-0.9-0.4-0.9,0.2c0.2,0.9,0.6,0.2,0.9,0.2c-1.1,0.4-1.1,1.9-1.9,1.3l0.2-0.2c-0.6-0.6-1.1,0.6-1.7,0.6
	c0.2,0.2,0.2,0.4,0.2,0.6c-1.3-0.6-2.1,0.2-3.4,0.2v1.1l-0.2-0.6c-0.6,0,0.2,1.1-0.2,1.1c0.2,0,0-0.2,0-0.4
	c-0.4,1.1-0.6-0.4-0.9-0.2c0-0.9,0.6-0.4,0.2-1.5c-0.4,1.1-1.7,1.1-1.1,2.8c-1.5-0.2-2.4,1.7-3.2,2.4c-0.2-0.2,0-0.2-0.2-0.4
	c0.2,1.1-1.7,0.2-1.1,1.1c-0.2,0-0.9-0.6-1.1-0.6c0,0.4-0.2,0.9-0.4,1.3v-0.4l0,0V28l0,0c-0.6,0.9-1.5,1.3-1.5,2.6
	c0-0.9-0.9-0.9-0.9-1.1c0.6,1.5,0,1.9-0.6,2.6c-0.2-0.2-0.4-0.4-0.4-0.6v0.9l-0.2-0.2c-0.9,0.4-0.2,2.1-1.1,2.1
	c0.2-0.4-0.2-0.6-0.4-0.9c-0.4,0.4-0.9,0.9-0.9,1.7l-0.2-0.2c-0.2,0,0,0.4,0,0.6l-0.6-0.4c0,0.4-0.6,0.6-0.4,1.3
	c-0.6-0.4,0,1.3-0.6,1.5c0,0.2-0.4-0.9-0.6-0.4c1.3,1.1-0.4,0.6,0.9,1.7h-0.9l0.6,0.6c-1.5-0.6,0.2,0.9-0.4,1.1
	c-0.2-0.2-0.2-0.2-0.2-0.2c0,0.2-0.2,0.6,0.4,0.6c-0.2,0.2-0.4,1.3-0.9,0.4c0.4,0.2,0.2-0.2,0.2-0.6c-0.6-0.4-0.6,0.2-1.3-0.2
	l0.2,0.2l-0.4-0.2c0.4,0.9-0.4,1.1,0.2,2.1c-0.2,0-0.4,0-0.4,0l0.9,0.4l-0.4,0.4l-1.1-0.9c-0.6,0.4,0.4,1.7,0.4,2.4
	c-1.5-0.6,0,1.3-1.5,1.1l-0.2-0.6c-0.2,1.1-1.1,0.6-1.1,1.7c0.9-0.4,0.6-0.6,2.1-0.9c-1.1,0.6-0.2,2.1-1.5,2.6
	c-0.2-0.2-0.4-0.6-0.9-0.4c0.6,0.6-0.4,0.9,0.4,1.1c-0.4,0.2-1.3-0.2-1.5,0l0.6,1.5l-0.2-0.2c-1.3,0.4-1.3,1.3-1.3,2.4v0.9
	C265.4,52.9,265.8,52.2,265.4,53.5L265.4,53.5"/>
<path class="st0" d="M18.6,23.5v3.6c3-3,5.6-4.1,9.2-4.1c4.5,0,7.5,1.5,9.8,5.4c2.4-3.6,5.6-5.4,9.6-5.4c6.2,0,9.6,3.9,9.6,10.7
	v18.6H46.9V38.3c0-3,0-3.4-0.4-4.5c-0.6-1.5-2.1-2.6-3.9-2.6c-3.2,0-4.9,2.4-4.9,7.1v14.1H27.6V38.3c0-3,0-3.6-0.4-4.5
	c-0.6-1.5-2.4-2.8-4.1-2.8c-1.5,0-3.2,1.1-3.9,2.4c-0.4,1.1-0.6,2.4-0.6,4.9v14.1H8.6V23.5H18.6"/>
<path class="st0" d="M86,32.7c-1.9-1.3-3.4-1.9-5.4-1.9c-4.1,0-7.1,3-7.1,6.8c0,4.3,2.8,7.1,7.1,7.1c1.9,0,3.4-0.6,5.1-1.9v8.6
	c-2.6,1.5-4.5,1.9-7.1,1.9c-8.8,0-15.6-6.6-15.6-15.2c0-9,6.8-15.4,16.1-15.4c2.6,0,4.5,0.4,6.6,1.5L86,32.7"/>
<path class="st0" d="M101.2,37.9c0,3.6,3,6.6,6.6,6.6c3.6,0,6.6-3,6.6-6.6c0-3.6-3-6.6-6.6-6.6C104,31.2,101.2,34.2,101.2,37.9z
	 M124.1,23.5v28.7h-10.1V49c-2.1,2.8-4.9,4.1-9,4.1c-8.1,0-14.6-6.6-14.6-15.4s6.2-15.2,14.6-15.2c3.6,0,6.4,1.1,9,3.6v-2.8
	L124.1,23.5"/>
<g>
	<path class="st0" d="M145.1,27.8c-0.9-1.9-2.8-3.2-4.9-3.2c-2.4,0-4.9,1.9-4.9,4.5c0,6.8,13.9,3.6,13.9,13.9c0,5.4-4.1,9-9.2,9
		c-4.7,0-8.8-3-9.8-7.5l2.8-0.9c1.1,3.4,3.4,5.8,7.1,5.8s6.4-2.8,6.4-6.4c0-3.6-2.8-4.7-5.6-5.6c-3.9-1.5-8.3-3-8.3-7.9
		c0-4.3,3.6-7.3,7.9-7.3c3,0,6,1.9,7.3,4.5L145.1,27.8z"/>
	<path class="st0" d="M159,0v27h0.2c1.7-3.2,4.7-5.1,8.6-5.1c7.3,0,9.4,4.5,9.4,12v17.3h-2.8V34c0-5.1-0.6-9.4-6.8-9.4
		c-7.3,0-8.3,6.6-8.3,12.6v13.9h-2.8V0H159z"/>
	<path class="st0" d="M213.8,36.8c0,8.6-6.6,15-15,15s-15-6.8-15-15c0-8.3,6.6-15,15-15C207.2,22,213.8,28.5,213.8,36.8z M186.6,37
		c0,6.4,5.1,12.2,12,12.2c7.1,0,12.4-5.4,12.4-12.2c0-7.1-5.4-12.4-12.4-12.4C191.8,24.6,186.6,30.4,186.6,37z"/>
	<path class="st0" d="M223.4,27.8L223.4,27.8c2.1-3.6,6.8-5.8,11.1-5.8c8.8,0,14.1,6.8,14.1,15s-5.4,14.6-13.9,14.6
		c-4.5,0-8.8-1.9-11.1-5.6h-0.2v21.4h-2.8V22.7h2.8V27.8z M223.2,37.2c0,6.6,4.5,11.6,11.3,11.6c6.6,0,11.1-5.6,11.1-11.8
		c0-6.6-4.3-12.4-11.3-12.4C227.1,24.6,223.2,30.4,223.2,37.2z"/>
</g>
</svg>
