<?xml version="1.0" encoding="utf-8"?>
<!-- Generator: Adobe Illustrator 24.2.3, SVG Export Plug-In . SVG Version: 6.00 Build 0)  -->
<svg version="1.1" id="Capa_1" xmlns="http://www.w3.org/2000/svg" xmlns:xlink="http://www.w3.org/1999/xlink" x="0px" y="0px"
	 viewBox="0 0 290 64.7" style="enable-background:new 0 0 290 64.7;" xml:space="preserve">
<style type="text/css">
	.st0{fill:#231F20;}
	.st1{fill:#62B94C;}
	.st2{fill:#F1912E;}
	.st3{fill:#E7442E;}
	.st4{fill:#0079B8;}
	.st5{fill:#775A9B;}
	.st6{fill:#FAD227;}
	.st7{fill:#0059A9;}
	.st8{fill:#C23B8E;}
	.st9{fill:#02509B;}
</style>
<g>
	<g>
		<path class="st0" d="M119.6,41.9l3.5-2c0.6,1.5,1.4,2.6,2.5,3.3c1.1,0.7,2.4,1.1,4,1.1c1.6,0,2.8-0.4,3.7-1.2
			c0.9-0.8,1.4-1.8,1.4-3.1c0-2-1.8-3.8-5.4-5.2c-0.4-0.1-0.7-0.3-0.9-0.4c-2.8-1.1-4.7-2.2-5.9-3.4c-1.1-1.2-1.7-2.6-1.7-4.3
			c0-2.2,0.8-4.1,2.4-5.5c1.6-1.4,3.7-2.2,6.2-2.2c2.1,0,4,0.5,5.5,1.4c1.5,0.9,2.6,2.3,3.3,4l-3.4,1.9c-0.4-1.3-1.1-2.2-2.1-2.9
			c-1-0.7-2.2-1-3.6-1c-1.3,0-2.3,0.4-3.1,1.1c-0.8,0.7-1.2,1.7-1.2,2.8c0,1.1,0.4,2,1.2,2.7c0.8,0.7,2.5,1.5,5.1,2.4
			c2.9,1,4.9,2.1,5.9,3.3c1,1.2,1.5,2.8,1.5,5c0,2.4-0.9,4.4-2.6,5.8c-1.7,1.5-4.1,2.2-7,2.2c-2.2,0-4.2-0.5-5.8-1.5
			C121.5,45.2,120.4,43.8,119.6,41.9z"/>
		<path class="st0" d="M145.6,46.6V0.3h3.5v23.9c1.1-1.7,2.4-3,4-3.8c1.6-0.8,3.4-1.3,5.4-1.3c3,0,5.3,0.8,7,2.5
			c1.7,1.7,2.5,4,2.5,7v18h-3.7V30.3c0-2.6-0.6-4.6-1.7-5.9c-1.1-1.3-2.8-1.9-5.1-1.9c-2.8,0-4.9,0.8-6.2,2.5c-1.3,1.7-2,4.3-2,7.8
			v13.8H145.6z"/>
		<path class="st0" d="M189,47.8c-1.9,0-3.7-0.4-5.4-1.1c-1.7-0.7-3.3-1.8-4.7-3.2c-1.3-1.3-2.3-2.8-3-4.5c-0.7-1.7-1-3.5-1-5.5
			c0-1.9,0.4-3.8,1.1-5.5c0.7-1.7,1.7-3.3,3.1-4.6c1.4-1.4,2.9-2.4,4.6-3.1c1.7-0.7,3.6-1.1,5.5-1.1c2,0,3.8,0.4,5.6,1.1
			c1.8,0.7,3.3,1.8,4.7,3.1c1.4,1.4,2.4,2.9,3.1,4.6c0.7,1.7,1.1,3.6,1.1,5.5s-0.4,3.7-1.1,5.4c-0.7,1.7-1.8,3.2-3.1,4.6
			c-1.4,1.4-3,2.5-4.8,3.2C192.8,47.4,191,47.8,189,47.8z M189.2,44.4c2.9,0,5.4-1,7.4-3.2c2-2.1,3-4.7,3-7.7c0-3.1-1-5.7-3-7.8
			c-2-2.1-4.5-3.1-7.4-3.1c-2.9,0-5.4,1-7.4,3.1c-2,2.1-3,4.7-3,7.8c0,3,1,5.6,3,7.7C183.8,43.3,186.2,44.4,189.2,44.4z"/>
		<path class="st0" d="M210.7,64.3V20.1h3.6v5c1-1.9,2.3-3.4,4-4.4c1.6-1,3.5-1.5,5.5-1.5c3.7,0,6.7,1.3,9,3.9
			c2.3,2.6,3.4,6.1,3.4,10.4c0,4.3-1.1,7.8-3.3,10.4c-2.2,2.6-5.2,3.9-8.9,3.9c-2.1,0-4-0.5-5.6-1.5c-1.6-1-3-2.5-4-4.5v22.5H210.7z
			 M232.2,33.5c0-3.4-0.8-6.1-2.3-8.1c-1.6-2-3.7-2.9-6.5-2.9c-2.8,0-5,1-6.6,2.9c-1.6,1.9-2.4,4.5-2.4,7.8c0,3.4,0.9,6.1,2.6,8.1
			c1.7,2,4,3,6.8,3c2.7,0,4.7-1,6.2-2.9C231.4,39.6,232.2,37,232.2,33.5z"/>
	</g>
	<g>
		<polyline class="st1" points="36.8,56.6 0.3,56.6 0.2,64.3 36.8,64.3 36.8,56.6 		"/>
		<polyline class="st2" points="72.9,56.6 36.8,56.6 36.8,64.3 72.9,64.3 72.9,56.6 		"/>
		<polyline class="st3" points="109.1,56.6 72.9,56.6 72.9,64.3 109.1,64.3 109.1,56.6 		"/>
		<polyline class="st4" points="145.2,56.6 109.1,56.6 109.1,64.3 145.2,64.3 145.2,56.6 		"/>
		<polyline class="st5" points="181.3,56.6 145.2,56.6 145.2,64.3 181.3,64.3 181.3,56.6 		"/>
		<polyline class="st6" points="207.9,56.6 181.3,56.6 181.3,64.3 207.9,64.3 207.9,56.6 		"/>
		<polyline class="st7" points="253.6,56.6 217.1,56.6 217.1,64.3 253.6,64.3 253.6,56.6 		"/>
		<polyline class="st8" points="289.7,56.6 253.6,56.6 253.6,64.3 289.7,64.3 289.7,56.6 		"/>
	</g>
	<path class="st9" d="M259.3,46.7l-0.8-0.5c0,0,0.1,0.2,0.3,1.2c0.2,1-0.2-0.1-0.3-0.2c-0.1-0.1-0.7,0-0.8,0c-0.1,0,0,0.1-0.1,0.4
		c-0.1,0.3,0,0-0.3,0.2c-0.3,0.2-0.3-0.2-0.3-0.2s0,0-0.3-0.4c-0.3-0.4-0.2,0.1-0.5,0.2c-0.3,0.1,0-0.2,0-0.2l-1-0.2
		c0,0,0,0.4-0.2,0.8c-0.2,0.3,0,0-0.2,0c-0.2,0,0-0.5,0-0.5s-0.3-0.1-0.7-0.1c-0.4,0,0,0,0,0.2c0,0.2,0,0-0.2,0
		c-0.2,0-0.4-0.5-0.4-0.5l-0.2-0.7l-0.1-0.5c0,0-0.2,0.1-0.2,0.2c0.1,0.1,0.1,0.3,0.1,0.3s-0.6,0-0.8,0c-0.2,0,0-0.2,0-0.2
		s-0.4,0.1-0.5,0.1c-0.1,0,0.1-0.2,0.1-0.2l-0.2-0.1c0,0,0,0-0.2,0c-0.2,0-0.4-0.6-0.4-0.6l0-0.8l-0.6,0.4l0.4-1.1l-0.8,1l-0.7-1.3
		l0.5,0.7l-0.9-0.7l-0.1-1c0.5-0.2-0.5,0.1-0.6,0l0.4-0.2l-0.3,0.1l0.5-0.3c-0.4-0.1-0.2-0.9-1.1-0.4l0.7-0.6l-0.9,0.2l0.7-0.3
		c-0.2-0.6-1.5-0.6-1.6-0.7l0.3-0.2c0-0.2-0.2-0.1-0.3-0.1l0.4-0.4c-0.9-0.5-0.4-1.7-1.7-1.9c-0.2-0.3,0.2,0,0.4-0.3
		c0.1-0.5-0.5-0.4-0.7-0.2c0.5-0.7,0.8-0.1,0.9-0.9c-0.5,0.2,0.6-0.5,0.1-0.7l-0.8,0.8c-0.1-0.3,0.4-0.7,0-0.9
		c-0.7,0.1-0.1,1.4-0.9,1.1c-0.3-0.3,0.6-2.6-0.5-2.5c-0.4-0.8,1.2-1.3,0.1-1.5l0.9-0.3c0-0.3,0.4-0.8-0.1-0.8
		c-0.3,0.3-0.8,0.6-1.1,0.6c1.2-0.3-0.2-1.5,1.1-2l-0.3-0.1c0.1,0,0.1-0.1,0.1-0.2c-0.1-0.1-0.2-0.2-0.4-0.3c0.4-0.1,1,0.2,1.1-0.7
		c-0.2-0.2-0.3-0.3-0.6-0.5c0.5-0.4,0.3-0.8,0.6-1.2c0.9,0,1.7,0,2.5,0c-0.2,0.3-0.6,0.3-0.7,0.7c0.3,0.5,0.7-0.3,0.9,0.4l-0.4,0.3
		c0.1-0.1,0.2-0.1,0.2-0.3c0-0.4-0.3-0.1-0.4,0.2c-0.1,0.6,0.5,0.5,0.9,0.2c0.5,0.4-0.4,1-0.4,1.2c0.8-0.7,0.9,0.6,1.5,0.4l-0.6,0.4
		c0,0.9,0.7,0.6,1.1,0.6l-0.4,0.4c0.6,0.3-0.1,2,1.4,0.8l-0.3,0.2c0.1,0.3,0.2,0.9,0.8,0.6c-0.1,0.2-0.3,0.4-0.2,0.6
		c0.6-0.5,0.5,0.1,0.7,0.5c-0.3,0-0.9,0.8-1.3,0.8c-0.1,1.1,1.1-0.4,1.5-0.1c-0.1,0.6-0.6,0.2-0.9,0.4c1,0.2-0.3,2.7,1.4,1.8
		l0.2-0.7c0.5,0,0.7,0.1,0.5,0.2c0-0.1-0.2,0-0.3,0.1c-0.1,1.4,2.2,0.3,2.5,1.7c-0.4,0.1-0.5,0-0.8,0.2c-0.1,0.6,1.9-0.5,1.7,0.9
		l-0.5,0c-0.1,0.4,0.5,0.4,0.6,0.4c-1.5,0.3,0.6,2.6-1.7,3.1c0.5,0.1,0.6,1.4,0.9,0.7c-0.1-0.2,0.3-0.7-0.4-0.7c-1,0-2,1.3-1.1,0
		c0.2-0.4,0.1-1.1-0.6-1.4c-0.7,0-1.2,0.3-1.5,0.6c-0.6,0.7-0.4,0.7-0.4,0.6l0-0.2c0-0.1,0.1-0.2,0.3-0.2c1.1,0,0.8,0.8,1.7,1
		c0.1-0.3-0.6-0.8-0.1-1.2c-0.8-0.4-2.1,0.2-2.2-0.9l0.5,0.1c-0.1,0.1-0.3,0.1-0.3,0.3c0.4,0.5,0.6,0.1,0.9,0.1l0.2-1.1
		c-0.8-0.5-0.9,0.2-1.1,0.2c0.5-0.7,2.2-1,2-2l0.3,0.2c-0.3-1.2,1.8,0.3,0.8-1.1c0.4-0.3,0.9,0.6,1.2,0.1c0.1-0.1-0.3-0.2-0.4-0.3
		c0-0.8,1,0.1,0.5-0.9l0.8,0.6c-0.3-1-1.4-2.7-0.7-3.1c0.7,0.4,0.4,0.8,0.8,1.2c-0.8-1.5,1-2.1,0.8-3.3c-0.7-0.1-1.1-1.2-1.9-1
		c0.8,0.7,0.1,0.5,0,0.9c-1.7-1.6,2-1.3,0.5-2.4l0.7,0.3c0-0.2-0.3-0.8-0.7-0.7l1-0.6c0.3,0.6,1,2,0.2,1.7c0.6,0.7,0.7-0.1,1.4,0.7
		c-0.7-1.3,0.7,0,0.8-0.8c-1.1-0.4-0.9-1.4-1.4-1.7c0.3-0.1,0.2-0.8,0-1.2c0.2-0.4,1.4-0.7,1.5-1.4c0.1,0.4,0.3,1,0.9,1.4
		c-0.1-0.5,0.1-0.8,0.8-0.3c0.6,1.8-1.8-0.8-1.6,0.6c0.6,0.8,0.7,1.1,0.6,1.7c0.6,0.1,0.7,0.3,1.3,0.6c-1.3-1.7,0.7-1.4,0.4-2.7
		c-0.3-0.6-1.5-1.2-1.1-2l-0.9,0.2c0.9-0.3-0.4-0.5-0.2-1.2l0.4,0.6c0.3-0.2,0.3-0.4,0.1-0.9l0.6,0.9c0.2-0.1,0.6-0.3,0.1-0.7
		c0.2,0.1,0.4,0.2,0.5,0.3c-0.1-0.1-0.1-0.3,0-0.5c0,0.2-0.1,0.2,0.1,0.4c0.4-0.9,1,0.5,1.3,0c0.1,0.2,0.5,0.3,0.7,0.2
		c-1.3-1-0.7-2-1.2-2.8l0,0l0-1c0,0.2,0.4,0.4,0.7,0.3l0,0c0.4,0,1.1,1.4,1.3,0.5l-0.1-0.6c0,0.1,0.2,0.2,0.3,0.3l0-0.6
		c1.5,0.6,0.2-1.4,1.2-1.4c-0.2,0.1-0.4,0.4,0.1,0.6c0.2,0,0.3-0.2,0.2-0.5l0.1,0.2l0.3-1.7c0.3,0.5-0.2,1,0.4,1.2
		c0.7,0.4,0.4-0.5,0.5-0.7c-0.3-0.3-0.9-0.2-0.7-0.7c0.2,0.1,0.8,0.1,0.9,0.5c0.1-0.6,0.4-1.3,0.2-2.1c0.2,0,0.2,0.3,0.2,0.4
		l-0.1-0.1c-0.1,0.4,0.7,0.8,0,0.9c0.9,1.1,0.8-0.3,1.4-0.4l0,1.2c2.2,0.6,2.2-2,3.3-2.8c-0.6-0.1-0.6,0.4-1.2-0.5
		c0.4-0.9,0.4-0.6,1-1.3l0,0.1c0.7,0.2,0.6-1,1.3-0.3c0.2,0.6-0.8-0.1-0.2,0.9l0.8-0.6c0.1,0.8-0.8,0.6-1.1,1
		c-0.3,0.1,0.4-0.4-0.2-1c-0.8,0.5-0.5,1.4-0.3,2.5c0.3,0.8,0.8,0.5,1,0.4c-0.3-1.4,0.2-2.3,1.3-2.3l0.9,0.5c0-0.9-1-2.3-0.1-2.5
		l0.1,0.7c0.3,0.1,0.4,0.2,0.5,0.1c-0.1,0.6-0.2,1.3-0.2,1.9c1.1,1,0.8-1.2,1.3-1.8c0,0.2-0.1,0.3,0,0.7c1-0.1,1.3-2.1,2-2.6
		c0.5,0.4-0.5,0.6,0,1.4c0.3-0.5,1,0.1,0.8-0.7c0.2,1.2,0.9-0.2,0.6,1.1c1.5,0,2.7-1.5,4.1-2.4c0,0.4,0.1,0.7,0.2,0.9
		c-0.5,0.1-1.2,0.6-1.2,1.4c0.4,0.5,0.5-1,0.7-0.6c-0.1,0.3-0.4,0.4-0.3,1c0.5,0.5,0.6-0.4,0.8-0.6l-0.2-0.3c0.8-1,0.1-2.1,1.2-2
		c0.5,0.7,0.1,0.6,0.2,1.5c0.2-0.4,1,0.5,1.2-0.5l-0.6,0c0.4-0.3,0.8-0.3,1.1-0.7c0,0.2,0,0.4-0.1,0.5c0.3-0.3,0.8-0.3,0.9-0.9
		l0.1,1c-0.2-0.4-0.8-0.4-0.9,0.1c0.1,0.8,0.7,0.3,0.9,0.3c-1.1,0.4-1,1.9-2,1.3l0.1-0.3c-0.7-0.7-1.1,0.7-1.6,0.7
		c0.2,0.2,0.3,0.5,0.2,0.7c-1.2-0.6-2.1,0.3-3.5,0.2l0,1l-0.3-0.7c-0.7-0.1,0.2,1-0.2,1.1c0.1,0,0.1-0.2,0-0.3
		c-0.4,1-0.6-0.5-0.9-0.2c-0.1-0.8,0.6-0.5,0.1-1.4c-0.4,1-1.6,1.1-1,2.7c-1.5-0.1-2.4,1.6-3.2,2.3c-0.3-0.2,0-0.3-0.2-0.4
		c0.2,1.1-1.6,0.2-1.1,1c-0.3-0.1-0.8-0.6-1-0.7c0,0.5-0.1,0.9-0.3,1.2l0.1-0.4l-0.1-0.1l-0.1,0.5l0,0c-0.5,0.8-1.5,1.2-1.5,2.5
		c0-0.8-0.8-0.7-0.9-1.2c0.6,1.4-0.1,2-0.7,2.5c-0.2-0.2-0.4-0.3-0.5-0.6l0.1,0.8l-0.2-0.3c-0.8,0.4-0.3,2.2-1.1,2.1
		c0.1-0.4-0.1-0.6-0.4-0.9c-0.4,0.5-0.8,0.9-0.9,1.7l-0.2-0.2c-0.2,0.1-0.1,0.5-0.1,0.7l-0.6-0.4c0,0.5-0.6,0.6-0.4,1.3
		c-0.7-0.4-0.1,1.3-0.6,1.5c0,0.3-0.4-0.8-0.7-0.4c1.2,1-0.4,0.6,0.9,1.6l-0.8,0l0.6,0.6c-1.5-0.6,0.2,0.9-0.5,1.1
		c-0.1-0.1-0.1-0.2-0.3-0.3c0,0.3-0.1,0.7,0.4,0.6c-0.2,0.2-0.4,1.3-0.9,0.4c0.4,0.3,0.3-0.3,0.3-0.5c-0.6-0.4-0.6,0.2-1.4-0.2
		c0.1,0.1,0.1,0.2,0.2,0.3l-0.4-0.2c0.3,0.9-0.5,1.1,0.2,2c-0.2-0.1-0.4-0.1-0.5,0.1l0.8,0.5l-0.3,0.5l-1-0.9
		c-0.6,0.5,0.4,1.6,0.4,2.2c-1.4-0.6-0.1,1.2-1.5,1l-0.1-0.6c-0.2,1-1.1,0.7-1.1,1.7c0.8-0.4,0.5-0.6,2.1-0.9
		c-1.1,0.7-0.2,2-1.4,2.5c-0.3-0.2-0.4-0.6-0.8-0.5c0.6,0.5-0.4,0.8,0.4,1.1c-0.4,0.1-1.2-0.2-1.4-0.1l0.5,1.4l-0.1-0.1
		c-1.3,0.4-1.4,1.3-1.2,2.2l0.1,0.7c-0.1,0.4,0.3-0.2-0.3,1L259.3,46.7 M263.9,34.7l0.1-0.3c0.1,0,0.1-0.1,0.1-0.2l-0.1,0.2
		C263.9,34.5,263.5,34.4,263.9,34.7z M280.1,16.5c-0.1-0.4-0.2,0-0.3-0.1l0.3-0.3C280.2,16.4,280.1,16.4,280.1,16.5z M259,31.6
		l-0.6-0.2l0.3,0.4L259,31.6z M256.8,35.2l-0.1-0.5l-0.1,0l0.1,0.5L256.8,35.2z M259.1,41.4l-0.1-0.1L259.1,41.4
		c0.3,0.5-0.8,0.1,0.1,0.8C260.1,42.3,259.4,41.7,259.1,41.4z M262.6,34.6c0.5,0.3,0.4,0.8,0.7,1.1c-0.2,0.1-0.5-0.4-0.8-0.6
		c-0.1,0-0.1,0.1-0.1,0.3C261.3,34.7,262.9,35.3,262.6,34.6z M267.3,27.6l-0.1,0l-0.1-0.6L267.3,27.6z M268.5,26
		c0.3-0.3,0-1-0.6-1.4c-0.1,0.4-0.6,0.7-0.1,1.3C267.6,25.5,268.7,26.8,268.5,26z M259.4,38c-0.1-0.3-1.1-1.3-0.2-1.4l0.1,0.5
		l0.1-0.1l0.4,0.3C258.6,36.6,259.5,37.8,259.4,38z M270,23.1c-0.1-0.6,0-1.5-0.4-1.8c0.7,0.7,0.7,1.4,0.6,1.5
		C270,22.8,270,22.9,270,23.1z M268.6,21.7c0,0.7,0.3,1.1,0.7,2c0.7-0.1-0.2-1.1-0.6-1.4c-0.1-0.6,0.3-0.1,0.6-0.1L268.6,21.7z
		 M270.3,24.1l-0.2,0c-0.5-0.1-1.4-0.9-0.7,0.2l0.7-0.2C270.1,24.2,270.2,24.2,270.3,24.1z M273.3,20.8l0.1,0.3
		c0.1,0.1,0.2,0.2,0.1,0.4l-0.1-0.4C273.1,21,272.7,20.8,273.3,20.8z M270.4,23.7l0.4-0.5C270.5,23.2,270.1,23.3,270.4,23.7z
		 M271.9,21c-0.1,0,0.5-0.3,0.7-0.4C272.7,20.9,272.3,21.4,271.9,21z M283.7,12.9l-0.4,0.1l0.4,0.7L283.7,12.9z M279.6,14.1
		l-0.2,0.1l-0.2-0.3L279.6,14.1z M275.4,16.1c0.1,0.1,0.2,0.3,0.3,0.4c0,0.1,0,0.2,0,0.3c0.1,0,0-0.2,0-0.3c0.1-0.2,0.3-0.3,0.5-0.2
		c0.1,0.3-0.1,0.4-0.1,0.7c0.8,0.5,0.2-2.1,1.2,0.1c0-0.4,0.1-1.2-0.2-1.5C276.8,16,275.9,16.3,275.4,16.1c-0.1-0.1-0.2-0.2-0.3-0.1
		L275.4,16.1z M270.3,19.5c0.1,0.2,0.4,0.3,0.4,0.7C270.4,20,270.3,19.8,270.3,19.5c0-0.1,0-0.2,0.1-0.3
		C270.3,19.3,270.3,19.4,270.3,19.5z M269.5,19.8l0.1-0.7l0.2,0.6l-0.1-1.3C269,18.3,269.1,19.3,269.5,19.8z M268.5,20.3l0.4-0.9
		l0.1,0.1l0,0l0.3,0.6l-0.3-0.5L268.5,20.3z M264.4,26.7l-0.3,0.3c0-0.1-0.2-0.8,0.2-1c-1.6-0.7,0.1,0.3-0.9,0.5
		c0.6-0.7-0.5-1.1-1-1.5c0.7,0.7-0.5,1.3,1.3,2.3C263.5,26.8,265.3,27.7,264.4,26.7z M260.6,30.9l-0.2,0.5l0.3-0.5L260.6,30.9z
		 M253.6,43.2c-2.2-0.7,3.5,1.4,1.5,0.3c-0.3,0,0.3,0.7-0.7-0.2c0.4-0.6-0.6-0.6-0.9-0.4c-0.3,0.2-0.3,0.4-0.3,0.3l0.1-0.1
		C253.5,43.2,253.5,43.2,253.6,43.2z M253,38.2l0.7,0.3c0.8-0.8-0.4-0.5-0.5-0.8C252.8,37.9,253.2,37.9,253,38.2z M250.4,34.6
		l-0.8,0.7l0.3,0L250.4,34.6z M251.7,34.1c-0.1-0.1-0.6-0.2-0.8,0.2L251.7,34.1z M247.7,32.2l0.7-0.7l-0.2-0.2L247.7,32.2z
		 M248,32.5c0.4-0.5,0.9-1.3,1.2-0.6c-0.4,0.6-0.5,0.5-0.8,1.4c-0.3,0-0.2-0.3-0.3-0.4c0.2,0,0.2,0.3,0.5,0
		C248.5,32.4,248.3,32.3,248,32.5c-0.1,0.2-0.3,0.4-0.4,0.4C247.7,32.7,247.9,32.6,248,32.5z M249.5,34.4c0,0.1,0,0.2,0,0.4l0.1-0.1
		C249.7,34.3,249.6,34.4,249.5,34.4l-0.1-0.4c0.3-0.5,0.9-0.6,1.2-0.8c-0.3,0-0.8,0.4-0.8-0.1c0.1-0.1,0.2-0.2,0.3-0.1l-0.2-0.3
		c-0.8,0.4-0.6,0.9-0.5,1.4c-0.1,0.1-0.1,0.3-0.2,0.4C249.2,34.6,249.4,34.5,249.5,34.4z M246.9,33.3c-0.1,0.1-0.2,0.4-0.4,0.5
		l-0.3,0C246.2,33.4,246.7,33.2,246.9,33.3z M253.7,42.2c0.2-0.1,0.9,0.2,0.6,0.5l0.9-0.1c-0.6-0.1-0.5-0.7-0.6-0.8
		C253.8,41.8,254.2,42,253.7,42.2z M260.1,31.7c0.2,0.3-0.8,0.6,0.1,1.3C259,32.6,259.7,31.9,260.1,31.7z M261.3,32.1
		c0.1-0.2,0.2-0.2-0.3-0.5c-0.1-0.2,0.2-0.2,0.1-0.4C260.5,31.3,261.3,31.8,261.3,32.1l-0.1,0.2C261.3,32.3,261.4,32.2,261.3,32.1z
		 M257.4,39.2l0.6,0.6l-0.3,0.4L257.4,39.2z M256.9,44.2l0-0.4l-0.2,0c-0.2-0.1-0.5-0.2-0.6-0.3l0-0.2c0,0.1,0,0.1,0,0.2
		c0,0.3-0.2,0.5,0.3,0.8c-0.2-0.2,0-0.7,0.5-0.4L256.9,44.2z M249.2,39.7c0.2-0.5,0-0.4-0.2-0.4C248.8,39.5,248.9,39.7,249.2,39.7z
		 M258.3,42c-0.5,0.3-0.8-0.6-1.2-0.5l0.2-0.2c-0.8,0.1,0.5,0.6,0.2,0.8l0.2-0.1c0.6,0.1,0.3,0.4,0.7,0.7
		C258.7,42.6,258.5,41.9,258.3,42z M247.7,39.9c0.2,0.1,1-0.9,0.9-0.2C248.3,39.7,247.5,40.6,247.7,39.9z"/>
	<g>
		<path class="st7" d="M74.8,29.2c-1.9-1.3-3.3-1.8-5.1-1.8c-3.9,0-6.7,2.8-6.7,6.6c0,4,2.8,6.8,6.9,6.8c1.8,0,3.4-0.6,5-1.8v8.3
			c-2.5,1.1-4.4,1.5-6.9,1.5c-8.4,0-15.1-6.4-15.1-14.6c0-8.6,6.5-14.9,15.5-14.9c2.4,0,4.3,0.4,6.5,1.5V29.2"/>
		<path class="st7" d="M111.7,20.2v27.7h-9.8v-3.1c-2.1,2.8-4.8,4-8.6,4c-7.9,0-14-6.5-14-14.8c0-8.4,6.1-14.7,14-14.7
			c3.6,0,6.2,1.1,8.6,3.6v-2.7H111.7 M89.5,34c0,3.5,2.9,6.4,6.4,6.4c3.5,0,6.3-2.8,6.3-6.3c0-3.5-2.8-6.4-6.3-6.4
			C92.4,27.7,89.5,30.5,89.5,34z"/>
		<path class="st7" d="M10,20.2v3.4c2.9-2.8,5.3-3.9,8.9-3.9c4.3,0,7.2,1.5,9.4,5.1c2.2-3.4,5.3-5.2,9.4-5.2c6.1,0,9.4,3.6,9.4,10.2
			v18h-9.8V34.2c0-2.8-0.1-3.3-0.5-4.4c-0.7-1.5-2-2.4-3.6-2.4c-3.1,0-4.7,2.3-4.7,6.9v13.7h-9.8V34.2c0-2.9-0.1-3.4-0.4-4.4
			c-0.6-1.5-2.2-2.6-3.9-2.6c-1.5,0-3.2,1-3.8,2.3c-0.5,1-0.7,2.3-0.7,4.7v13.7H0.2V20.2H10"/>
	</g>
</g>
</svg>
