<?xml version="1.0" encoding="UTF-8"?>
<svg id="logos" xmlns="http://www.w3.org/2000/svg" version="1.1" viewBox="0 0 669.02 116.95">
  <!-- Generator: Adobe Illustrator 30.1.0, SVG Export Plug-In . SVG Version: 2.1.1 Build 136)  -->
  <defs>
    <style>
      .st0 {
        fill: #0a0080;
      }
    </style>
  </defs>
  <g>
    <path class="st0" d="M411.89,37.03c-4.69-5.88-11.81-8.82-21.37-8.82s-16.67,2.94-21.36,8.82c-4.7,5.87-7.04,12.82-7.04,20.83s2.35,15.12,7.04,20.92c4.69,5.78,11.81,8.68,21.36,8.68s16.68-2.9,21.37-8.68c4.7-5.8,7.03-12.77,7.03-20.92s-2.34-14.96-7.03-20.83ZM400.27,70.75c-2.28,3.01-5.53,4.53-9.8,4.53s-7.52-1.52-9.81-4.53-3.44-7.31-3.44-12.88,1.14-9.85,3.44-12.86,5.57-4.51,9.81-4.51,7.51,1.5,9.8,4.51c2.28,3,3.42,7.3,3.42,12.86s-1.14,9.87-3.42,12.88h0Z"/>
    <path class="st0" d="M292,32.11c-4.76-2.41-10.2-3.63-16.33-3.63-9.42,0-16.07,2.46-19.94,7.36-2.44,3.14-3.8,7.15-4.12,12.03h14.08c.34-2.16,1.03-3.86,2.08-5.12,1.45-1.7,3.92-2.55,7.4-2.55,3.11,0,5.47.43,7.09,1.3,1.6.86,2.41,2.45,2.41,4.73,0,1.88-1.04,3.25-3.14,4.15-1.17.51-3.11.94-5.83,1.28l-4.99.61c-5.67.72-9.97,1.92-12.88,3.59-5.33,3.07-7.99,8.03-7.99,14.89,0,5.28,1.65,9.36,4.97,12.24,3.3,2.89,7.5,4.09,12.58,4.33,31.82,1.43,31.47-16.77,31.76-20.55v-20.93c0-6.72-2.38-11.29-7.13-13.72h-.02ZM284.6,63.88c-.1,4.88-1.49,8.23-4.17,10.08-2.69,1.84-5.61,2.76-8.8,2.76-2.02,0-3.72-.57-5.13-1.66-1.4-1.11-2.11-2.91-2.11-5.41,0-2.79,1.15-4.85,3.45-6.19,1.36-.78,3.59-1.45,6.7-1.98l3.32-.62c1.66-.31,2.95-.66,3.9-1.02.96-.34,1.89-.81,2.82-1.39v5.42h.02,0Z"/>
    <path class="st0" d="M219.44,40.95c3.64,0,6.31,1.12,8.04,3.37,1.18,1.66,1.92,3.54,2.2,5.61h15.7c-.85-7.93-3.63-13.45-8.31-16.58-4.7-3.12-10.71-4.69-18.05-4.69-8.65,0-15.43,2.65-20.34,7.95-4.91,5.31-7.38,12.73-7.38,22.26,0,8.44,2.22,15.33,6.67,20.63s11.39,7.95,20.82,7.95,16.57-3.18,21.37-9.54c3.01-3.94,4.7-8.12,5.06-12.54h-15.64c-.32,2.92-1.23,5.31-2.75,7.14-1.5,1.83-4.05,2.75-7.65,2.75-5.06,0-8.52-2.31-10.35-6.94-1.01-2.47-1.52-5.74-1.52-9.81s.51-7.68,1.52-10.28c1.91-4.85,5.44-7.29,10.61-7.29h0Z"/>
    <path class="st0" d="M187.09,28.67c-32.25,0-30.33,28.54-30.33,28.54v29h14.64v-27.19c0-4.46.57-7.75,1.67-9.9,2.01-3.81,5.94-5.71,11.78-5.71.44,0,1.02.03,1.73.06.71.04,1.52.1,2.46.21v-14.89c-.65-.04-1.07-.06-1.25-.09-.19-.02-.41-.03-.69-.03h0Z"/>
    <path class="st0" d="M145.02,39.49c-2.53-3.74-5.74-6.49-9.61-8.23-3.88-1.73-8.23-2.59-13.06-2.59-8.15,0-14.77,2.56-19.88,7.7-5.1,5.15-7.66,12.52-7.66,22.16,0,10.28,2.83,17.69,8.49,22.26,5.65,4.55,12.18,6.85,19.58,6.85,8.96,0,15.93-2.71,20.91-8.11,2.69-2.84,4.37-5.66,5.08-8.44h-15.53c-.61.88-1.27,1.63-2,2.21-2.07,1.7-4.88,2.22-8.18,2.22-3.12,0-5.58-.47-7.79-1.86-3.65-2.25-5.71-6.05-5.93-11.61h40.49c.05-4.8-.1-8.48-.49-11.04-.67-4.35-2.16-8.19-4.43-11.49v-.02h0ZM109.8,52.42c.52-3.62,1.83-6.48,3.87-8.6,2.06-2.11,4.95-3.18,8.68-3.18,3.43,0,6.31,1,8.63,3,2.31,2,3.6,4.93,3.87,8.77h-25.05Z"/>
    <path class="st0" d="M65.73,28.47c-6.79,0-12.67,2.98-16.62,7.75-3.75-4.77-9.53-7.75-16.62-7.75-14.29,0-23.51,10.5-23.51,24.4v33.34h13.38v-33.65c0-6.14,4.16-10.39,10.14-10.39,8.82,0,9.72,7.31,9.72,10.39v33.65h13.38v-33.65c0-6.14,4.26-10.39,10.13-10.39,8.82,0,9.83,7.31,9.83,10.39v33.65h13.36v-33.34c0-14.33-8.6-24.4-23.2-24.4h.01Z"/>
    <path class="st0" d="M343.03,21.36l-.02,15.68c-1.63-2.63-3.75-4.68-6.37-6.14-2.61-1.48-5.6-2.22-8.98-2.22-7.31,0-13.13,2.73-17.51,8.15-4.37,5.44-6.56,13.29-6.56,22.77,0,8.23,2.22,14.98,6.66,20.23,4.43,5.24,13.13,7.55,20.86,7.55,26.94,0,26.63-23.1,26.63-23.1V11.11s-14.73-1.57-14.73,10.26h.02ZM340.22,70.87c-2.13,3.06-5.27,4.59-9.38,4.59s-7.18-1.55-9.2-4.61c-2.02-3.09-3.03-7.57-3.03-12.69,0-4.77.99-8.74,2.98-11.96,1.99-3.21,5.1-4.82,9.36-4.82,2.79,0,5.24.88,7.35,2.64,3.43,2.92,5.15,8.18,5.15,14.97,0,4.86-1.08,8.82-3.22,11.88h0Z"/>
  </g>
  <g>
    <path class="st0" d="M463.32,28.34c-12.05-.57-18.14,2.3-22.1,5.33-5.48,4.18-8.82,10.37-8.82,20.26v50.84h7.09c1.9,0,3.8-.66,5.19-1.94,1.57-1.44,2.35-3.2,2.35-5.27v-19c1.73,2.98,4,5.16,6.88,6.59,2.73,1.27,5.87,1.91,9.45,1.91,6.74,0,12.27-2.68,16.56-8.07,4.3-5.53,6.45-12.73,6.45-21.64s-2.03-15.27-6.91-21.2c-3.94-4.8-9.93-7.51-16.14-7.79h0v-.02ZM468.32,70.07c-2.15,2.98-5.09,4.46-8.82,4.46-4.01,0-7.1-1.48-9.25-4.46-2.15-2.69-3.23-6.7-3.23-12.1,0-5.78,1-10.04,3-12.73,2.16-2.96,5.17-4.46,9.04-4.46s7.1,1.49,9.25,4.46c2.16,2.98,3.23,7.21,3.23,12.73,0,5.11-1.07,9.12-3.23,12.1h.01Z"/>
    <path class="st0" d="M589.01,33.59c-4.97-3.77-10.06-5.74-18.79-5.51-8.87.24-15.32,2.73-19.33,8.16-4.01,5.44-6.01,12.55-6.01,21.3,0,7.49,1.51,13.53,4.53,18.14,3.03,4.59,6.66,7.74,10.89,9.42,4.21,1.7,8.47,2.05,12.77,1.07,4.29-1,7.71-3.45,10.25-7.41v3.59c-.29,4.52-1.38,7.92-3.27,10.18-1.92,2.25-4.02,3.63-6.35,4.13-2.3.49-4.64.22-6.95-.85-2.33-1.05-4.05-2.58-5.17-4.55h-15.42c3.99,12,11.16,17.3,24.08,18.23,20.83,1.5,27.47-16.14,27.46-25.66v-29.91c0-9.89-3.22-16.22-8.66-20.36l-.02.02h-.01ZM582.89,62.97c-.57,3.31-1.48,5.76-2.75,7.3-2.67,3.67-6.84,4.97-12.45,3.93-5.64-1.07-8.46-6.48-8.46-16.22,0-4.52.84-8.56,2.54-12.1,1.69-3.52,4.92-5.3,9.71-5.3,3.52,0,6.2,1.28,8.02,3.81,1.84,2.55,3,5.44,3.49,8.7.49,3.25.45,6.54-.11,9.86h0v.02Z"/>
    <path class="st0" d="M532.36,32.1c-4.76-2.4-10.2-3.63-16.33-3.63-9.42,0-16.06,2.46-19.93,7.37-2.43,3.13-3.8,7.14-4.12,12.02h14.08c.34-2.15,1.03-3.86,2.07-5.11,1.45-1.7,3.92-2.56,7.4-2.56,3.12,0,5.48.43,7.09,1.3,1.6.86,2.4,2.45,2.4,4.73,0,1.87-1.04,3.26-3.14,4.14-1.17.51-3.11.94-5.83,1.28l-4.98.6c-5.67.72-9.98,1.92-12.87,3.59-5.33,3.07-7.99,8.02-7.99,14.88,0,5.28,1.65,9.36,4.97,12.24,3.3,2.89,7.5,4.09,12.59,4.33,31.81,1.42,31.45-16.77,31.74-20.55v-20.93c0-6.71-2.37-11.28-7.12-13.71h-.03ZM524.96,63.87c-.09,4.88-1.49,8.23-4.17,10.08-2.68,1.84-5.61,2.76-8.8,2.76-2.02,0-3.72-.57-5.13-1.66-1.4-1.11-2.11-2.91-2.11-5.4,0-2.79,1.15-4.85,3.45-6.18,1.37-.78,3.59-1.45,6.7-1.98l3.33-.61c1.66-.31,2.96-.65,3.9-1.01.96-.35,1.9-.82,2.82-1.4v5.42-.02h0Z"/>
    <path class="st0" d="M653.01,36.72c-4.7-5.88-11.82-8.82-21.37-8.82s-16.66,2.93-21.35,8.82c-4.7,5.87-7.04,12.81-7.04,20.83s2.35,15.11,7.04,20.92c4.69,5.78,11.81,8.67,21.35,8.67s16.67-2.9,21.37-8.67c4.69-5.8,7.03-12.77,7.03-20.92s-2.34-14.95-7.03-20.83ZM641.38,70.42c-2.28,3.02-5.53,4.54-9.78,4.54s-7.52-1.52-9.81-4.54c-2.3-3.01-3.45-7.3-3.45-12.87s1.14-9.85,3.45-12.86c2.28-3,5.56-4.51,9.81-4.51s7.51,1.5,9.78,4.51c2.28,3,3.41,7.29,3.41,12.86s-1.13,9.86-3.41,12.87Z"/>
  </g>
</svg>