<?xml version="1.0" encoding="UTF-8"?>
<svg id="Layer_1" xmlns="http://www.w3.org/2000/svg" version="1.1" viewBox="0 0 631.47 491">
  <!-- Generator: Adobe Illustrator 30.1.0, SVG Export Plug-In . SVG Version: 2.1.1 Build 136)  -->
  <defs>
    <style>
      .st0 {
        fill: #c5c7c8;
      }
    </style>
  </defs>
  <path class="st0" d="M244.52,275.47c-2.21-3.02-5.46-4.65-9.87-4.65-5.81,0-9.87,2.21-11.97,6.51s-3.02,9.29-3.02,14.75c0,11.97,3.49,18.59,10.46,19.87,6.74,1.28,11.97-.35,15.22-4.88,1.63-1.86,2.67-4.88,3.37-8.95.7-4.07.7-8.13.12-11.97-.7-4.07-1.97-7.44-4.3-10.69Z"/>
  <path class="st0" d="M394.27,196.94l-4.07.7c-3.95.7-6.51,1.51-8.25,2.44-2.79,1.63-4.18,4.07-4.18,7.55,0,3.02.93,5.46,2.67,6.74,1.63,1.28,3.72,2.09,6.16,2.09,3.95,0,7.55-.93,10.92-3.37,3.14-2.21,4.88-6.39,5.11-12.31v-6.74c-1.16.7-2.32,1.28-3.49,1.74-1.28.35-2.79.7-4.88,1.16Z"/>
  <path class="st0" d="M308.65,270.25c-5.23,0-9.29,1.86-11.97,5.46-2.79,3.72-4.18,8.95-4.18,15.8s1.28,11.97,4.18,15.8c2.79,3.6,6.74,5.46,11.97,5.46s9.29-1.74,11.97-5.46c2.79-3.6,4.18-8.83,4.18-15.8s-1.51-12.2-4.18-15.8-6.62-5.46-11.97-5.46Z"/>
  <path class="st0" d="M218.5,186.48c-.35-4.65-1.86-8.25-4.88-10.69-2.9-2.44-6.39-3.6-10.69-3.6-4.65,0-8.25,1.28-10.69,3.95-2.56,2.56-4.18,6.04-4.76,10.46l31.02-.12h0Z"/>
  <path class="st0" d="M169.24,295.57l-4.07.7c-3.95.7-6.51,1.51-8.25,2.44-2.79,1.63-4.18,4.07-4.18,7.55,0,3.02.93,5.46,2.67,6.74,1.74,1.28,3.72,2.09,6.16,2.09,3.95,0,7.55-.93,10.92-3.37,3.14-2.21,4.88-6.39,5.11-12.31v-6.74c-1.16.7-2.32,1.28-3.49,1.74-1.28.46-2.9.81-4.88,1.16Z"/>
  <path class="st0" d="M96.51,271.06c-4.88,0-8.6,1.86-11.27,5.46-2.44,3.37-3.6,8.6-3.6,15.68,0,6.51,1.28,11.39,3.95,14.75,2.67,3.72,6.39,5.46,11.27,5.46s8.25-1.86,10.92-5.46c2.67-3.6,3.95-8.6,3.95-14.75,0-6.74-1.28-11.97-3.95-15.68-2.44-3.6-6.39-5.46-11.27-5.46Z"/>
  <path class="st0" d="M468.51,176.26c-2.67-2.21-5.46-3.14-8.95-3.14-5.23,0-8.95,2.09-11.39,5.92-2.44,3.95-3.6,8.83-3.6,14.64,0,6.39,1.28,11.97,3.72,15.68s6.39,5.58,11.27,5.58,8.83-1.86,11.39-5.58c2.56-3.72,4.07-8.71,3.95-14.64,0-8.36-2.09-14.75-6.39-18.47Z"/>
  <path class="st0" d="M552.04,25H79.44c-26.14,0-47.28,21.14-47.28,47.17v346.55c0,26.14,21.14,47.28,47.28,47.28h472.6c26.14,0,47.28-21.14,47.28-47.28V72.17c0-26.02-21.26-47.17-47.28-47.17ZM178.77,166.85c6.16-6.16,14.41-9.41,24.4-9.41,5.92,0,11.27.93,16.15,3.14,4.65,2.21,8.71,5.46,11.73,10.11,2.79,4.07,4.65,8.71,5.46,14.17.35,3.14.58,7.67.58,13.71h-49.84c.35,6.74,2.79,11.39,7.32,14.17,2.79,1.74,5.81,2.32,9.53,2.32,4.07,0,7.44-.7,9.99-2.79.93-.7,1.74-1.74,2.44-2.79h19.17c-.93,3.37-2.9,6.74-6.16,10.34-6.16,6.74-14.64,9.99-25.67,9.99-9.18,0-17.08-2.79-24.16-8.48-6.97-5.58-10.46-14.75-10.46-27.42.12-11.62,3.37-20.68,9.53-27.07ZM121.96,317.99c-5.23,6.51-11.97,9.87-20.33,9.87-4.3,0-8.25-.7-11.62-2.32-3.49-1.74-6.16-4.53-8.48-8.13v23.35c0,2.67-.93,4.88-2.9,6.51-1.74,1.51-4.07,2.32-6.39,2.32h-8.71v-62.5c0-12.08,4.18-19.75,10.8-24.86,4.88-3.6,12.31-7.32,27.18-6.51,7.67.35,15.1,3.6,19.75,9.53,6.16,7.44,8.6,15.1,8.6,26.14.12,10.92-2.56,19.75-7.9,26.6ZM120.91,186.72v41.36h-16.5v-41.36c0-3.72-.93-12.78-11.97-12.78-7.44,0-12.55,5.23-12.55,12.78v41.36h-16.26v-41.01c0-17.08,11.27-29.97,28.81-29.97,8.71,0,15.8,3.72,20.45,9.53,4.88-5.92,11.97-9.53,20.45-9.53,18.01,0,28.58,12.55,28.23,29.97v41.01h-16.15v-41.36c0-3.72-1.16-12.78-11.97-12.78-7.32.12-12.55,5.34-12.55,12.78ZM195.49,302.89c-.35,4.65,0,26.95-39.03,25.33-6.16-.35-11.39-1.86-15.57-5.46-4.07-3.6-6.16-8.6-6.16-15.1,0-8.48,3.37-14.52,9.87-18.36,3.49-2.09,8.83-3.49,15.8-4.3l6.16-.7c3.37-.35,5.58-.93,7.09-1.63,2.67-.93,3.95-2.79,3.95-5.11,0-2.79-.93-4.88-2.9-5.81-2.09-.93-4.88-1.63-8.71-1.63-4.3,0-7.44,1.16-9.18,3.14-1.28,1.51-2.21,3.6-2.67,6.16h-17.08c.35-5.92,2.09-10.92,5.11-14.75,4.88-5.92,12.9-8.95,24.51-8.95,7.55,0,14.17,1.63,19.98,4.53,5.92,2.9,8.83,8.6,8.83,16.85v25.79ZM266.71,286.97v36.71c0,11.62-8.25,33.34-33.92,31.48-15.8-.93-24.75-7.55-29.62-22.31h19.05c1.51,2.44,3.49,4.3,6.39,5.58,2.9,1.28,5.58,1.63,8.6.93,2.9-.58,5.46-2.32,7.9-5.11,2.32-2.79,3.72-6.97,4.07-12.55v-4.18c-3.14,4.88-7.44,8.02-12.55,9.18-5.23,1.16-10.46.7-15.68-1.28-5.23-2.09-9.53-5.92-13.36-11.62-3.6-5.58-5.46-13.24-5.46-22.31,0-10.69,2.44-19.52,7.44-26.14,4.88-6.62,12.9-9.76,23.82-9.99,10.69-.35,16.96,2.21,23,6.74,6.62,5,10.57,12.9,10.34,24.86ZM265.43,182.65c-1.28,2.67-2.09,6.74-2.09,12.2v33.34h-18.01v-35.78s-2.32-35.2,37.29-35.2c.35,0,.58,0,.93.35.35,0,.93.12,1.63.12v18.36c-1.16-.12-2.21-.35-3.02-.35-.93-.12-1.63-.12-2.21-.12-7.32.12-12.08,2.44-14.52,7.09ZM334.9,317.3c-5.81,6.97-14.52,10.69-26.26,10.69s-20.45-3.49-26.26-10.69c-5.81-7.09-8.71-15.92-8.71-25.67s2.9-18.36,8.71-25.56c5.81-7.32,14.52-10.92,26.26-10.92s20.45,3.6,26.26,10.92c5.81,7.32,8.71,15.57,8.71,25.56s-2.9,18.59-8.71,25.67ZM309.46,206.35c2.32,5.58,6.51,8.6,12.78,8.6,4.53,0,7.55-1.16,9.41-3.37,1.86-2.32,2.9-5.23,3.37-8.83h19.52c-.35,5.46-2.44,10.69-6.16,15.34-5.92,7.9-14.64,11.73-26.26,11.73s-19.98-3.14-25.56-9.76c-5.46-6.62-8.25-15.1-8.25-25.44,0-11.73,2.9-20.91,8.95-27.42,5.92-6.51,14.41-9.76,24.98-9.76,8.95,0,16.5,2.09,22.31,5.81,5.58,3.72,9.18,10.69,10.11,20.33h-19.29c-.35-2.67-1.28-4.88-2.79-6.97-2.21-2.79-5.46-4.18-9.87-4.18-6.39,0-10.69,3.02-13.13,9.18-1.28,3.14-1.86,7.67-1.86,12.55s.46,9.18,1.74,12.2ZM420.53,204.14c-.35,4.65.12,26.95-39.03,25.33-6.16-.35-11.39-1.86-15.57-5.46-4.07-3.6-6.16-8.6-6.16-15.1,0-8.48,3.37-14.52,9.87-18.36,3.6-2.09,8.83-3.49,15.8-4.3l6.16-.7c3.37-.35,5.58-.93,7.09-1.63,2.67-.93,3.95-2.79,3.95-5.11,0-2.79-.93-4.88-2.9-5.81-2.09-.93-4.88-1.63-8.71-1.63-4.3,0-7.44,1.16-9.18,3.14-1.28,1.51-2.21,3.6-2.67,6.16h-17.08c.35-5.92,2.09-10.92,5.11-14.75,4.88-5.92,12.9-8.95,24.51-8.95,7.55,0,14.17,1.63,19.98,4.53,5.81,3.02,8.71,8.71,8.83,16.85v25.79h0ZM492.55,201.12s.35,28.46-32.76,28.46c-9.53,0-20.21-2.9-25.67-9.29-5.46-6.39-8.13-14.64-8.13-24.86,0-11.62,2.79-21.38,8.13-28.11,5.46-6.74,12.55-9.99,21.49-9.99,4.18,0,7.9.93,11.04,2.79,3.14,1.74,5.81,4.3,7.9,7.55v-19.29c0-14.52,18.12-12.55,18.12-12.55v65.29h-.12ZM559.12,219.01c-5.81,7.09-14.52,10.69-26.26,10.69s-20.45-3.6-26.26-10.69c-5.81-7.09-8.71-15.8-8.71-25.67s2.9-18.36,8.71-25.56c5.81-7.32,14.52-10.92,26.26-10.92s20.45,3.6,26.26,10.92c5.81,7.32,8.71,15.57,8.71,25.56-.12,9.99-2.9,18.59-8.71,25.67Z"/>
  <path class="st0" d="M532.75,172.19c-5.23,0-9.29,1.86-11.97,5.46-2.79,3.72-4.18,8.95-4.18,15.8s1.51,11.97,4.18,15.8c2.79,3.6,6.74,5.46,11.97,5.46s9.29-1.74,11.97-5.46c2.79-3.72,4.18-8.95,4.18-15.8s-1.51-12.2-4.18-15.8c-2.67-3.6-6.74-5.46-11.97-5.46Z"/>
</svg>