<?xml version="1.0" encoding="UTF-8"?>
<svg id="logos" xmlns="http://www.w3.org/2000/svg" version="1.1" viewBox="0 0 669.02 242.95">
  <!-- Generator: Adobe Illustrator 30.1.0, SVG Export Plug-In . SVG Version: 2.1.1 Build 136)  -->
  <defs>
    <style>
      .st0 {
        fill: #00bcff;
      }

      .st1 {
        fill: #fff;
      }

      .st2 {
        fill: #0a0080;
      }
    </style>
  </defs>
  <g>
    <path class="st0" d="M334.54,9.14c-44.64,0-80.83,23.15-80.83,51.71s36.19,53.95,80.83,53.95,80.83-25.39,80.83-53.95-36.19-51.71-80.83-51.71Z"/>
    <path class="st1" d="M308.24,44.86c-.04.08-.83.89-.32,1.55,1.25,1.59,5.11,2.51,9.02,1.63,2.32-.52,5.31-2.89,8.19-5.18,3.13-2.48,6.23-4.97,9.35-5.96,3.3-1.05,5.42-.6,6.82-.18,1.53.46,3.34,1.47,6.22,3.63,5.42,4.07,27.21,23.09,30.98,26.38,3.03-1.37,17.48-7.2,35.79-11.24-1.59-9.76-7.46-19.07-16.47-26.38-12.56,5.27-28.92,8.43-43.93,1.11-.07-.03-8.2-3.87-16.2-3.68-11.9.28-17.06,5.43-22.51,10.88l-6.91,7.45h-.01Z"/>
    <path class="st1" d="M377.59,68.81c-.26-.23-25.62-22.42-31.37-26.74-3.33-2.5-5.17-3.13-7.12-3.38-1.01-.13-2.41.06-3.38.33-2.67.73-6.17,3.06-9.27,5.52-3.21,2.56-6.24,4.97-9.06,5.6-3.59.8-7.98-.14-9.98-1.5-.81-.54-1.38-1.18-1.66-1.81-.74-1.72.63-3.09.85-3.32l7-7.57c.81-.81,1.63-1.62,2.47-2.43-2.26.29-4.35.87-6.38,1.43-2.54.71-4.98,1.39-7.45,1.39-1.03,0-6.55-.91-7.6-1.19-6.34-1.73-13.51-3.42-21.82-7.3-9.95,7.41-16.43,16.5-18.36,26.71,1.43.38,5.17,1.23,6.14,1.45,22.52,5.01,29.54,10.16,30.81,11.24,1.38-1.53,3.37-2.5,5.58-2.5,2.5,0,4.74,1.26,6.1,3.19,1.29-1.02,3.07-1.89,5.37-1.89,1.04,0,2.13.2,3.22.56,2.54.87,3.85,2.56,4.53,4.1.85-.38,1.9-.67,3.13-.67,1.22,0,2.48.28,3.75.83,4.15,1.78,4.8,5.86,4.42,8.94.3-.03.6-.05.89-.05,4.92,0,8.93,4,8.93,8.93,0,1.53-.39,2.96-1.07,4.22,1.34.75,4.76,2.46,7.76,2.08,2.39-.3,3.3-1.12,3.63-1.58.22-.32.46-.69.24-.95l-6.36-7.06s-1.04-.99-.7-1.37c.36-.39,1,.17,1.46.55,3.24,2.7,7.18,6.77,7.18,6.77.07.05.33.56,1.79.82,1.26.22,3.48.1,5.02-1.17.38-.32.77-.72,1.11-1.13-.03.02-.05.05-.07.06,1.63-2.08-.18-4.18-.18-4.18l-7.42-8.33s-1.06-.98-.7-1.38c.32-.34,1,.17,1.47.56,2.35,1.96,5.67,5.29,8.85,8.41.63.45,3.42,2.18,7.12-.25,2.25-1.47,2.7-3.29,2.63-4.65-.15-1.81-1.57-3.1-1.57-3.1l-10.13-10.19s-1.07-.91-.69-1.38c.31-.39,1,.17,1.46.55,3.22,2.7,11.97,10.72,11.97,10.72.13.09,3.14,2.24,6.88-.14,1.34-.85,2.19-2.14,2.26-3.64.13-2.59-1.7-4.13-1.7-4.13h0Z"/>
    <path class="st1" d="M328.45,81.72c-1.57-.02-3.29.92-3.52.78-.13-.08.1-.71.24-1.08.15-.36,2.22-6.59-2.82-8.75-3.86-1.66-6.22.21-7.03,1.05-.21.22-.31.2-.33-.07-.08-1.12-.58-4.15-3.91-5.17-4.76-1.46-7.82,1.86-8.6,3.07-.35-2.71-2.64-4.82-5.45-4.82-3.05,0-5.53,2.47-5.54,5.52,0,3.05,2.47,5.53,5.53,5.53,1.49,0,2.83-.59,3.82-1.54.03.03.05.08.03.18-.24,1.37-.66,6.33,4.54,8.36,2.09.81,3.86.21,5.33-.82.44-.31.51-.18.45.24-.19,1.28.05,4.01,3.88,5.56,2.91,1.19,4.64-.02,5.78-1.07.49-.45.63-.37.65.32.14,3.69,3.21,6.63,6.93,6.64,3.84,0,6.96-3.1,6.96-6.94s-3.11-6.92-6.95-6.96v-.02Z"/>
    <path class="st2" d="M334.52,7c-45.49,0-82.37,24.19-82.37,53.87,0,.77-.01,2.89-.01,3.15,0,31.49,32.23,56.99,82.37,56.99s82.38-25.5,82.38-56.98v-3.16c0-29.68-36.88-53.87-82.36-53.87h0ZM413.17,54.9c-17.9,3.98-31.26,9.76-34.6,11.25-7.81-6.82-25.87-22.52-30.76-26.19-2.79-2.11-4.7-3.21-6.38-3.71-.75-.23-1.79-.49-3.13-.49-1.24,0-2.58.22-3.98.67-3.16,1-6.31,3.5-9.36,5.93l-.15.13c-2.84,2.25-5.77,4.59-7.99,5.08-.97.22-1.97.33-2.96.33-2.49,0-4.72-.72-5.56-1.79-.14-.18-.05-.46.28-.87l.04-.06,6.88-7.41c5.39-5.39,10.47-10.47,22.18-10.74.2,0,.39-.01.59-.01,7.28,0,14.57,3.26,15.39,3.65,6.83,3.33,13.89,5.02,20.97,5.03,7.37,0,14.98-1.82,22.97-5.5,8.35,7.02,13.89,15.48,15.57,24.7h0ZM334.53,10.18c24.15,0,45.75,6.92,60.28,17.82-7.02,3.04-13.72,4.57-20.17,4.57-6.61,0-13.21-1.59-19.62-4.72-.34-.16-8.38-3.95-16.75-3.96-.22,0-.44,0-.66,0-9.83.23-15.37,3.72-19.1,6.78-3.62.09-6.75.96-9.53,1.74-2.48.69-4.62,1.28-6.71,1.28-.86,0-2.41-.08-2.55-.09-2.4-.07-14.44-3.03-24.06-6.66,14.5-10.3,35.5-16.78,58.88-16.78h0ZM272.81,29.11c10.04,4.11,22.23,7.28,26.09,7.53,1.07.07,2.22.2,3.37.2,2.56,0,5.11-.72,7.58-1.41,1.46-.41,3.07-.85,4.76-1.18-.45.44-.91.89-1.36,1.35l-6.98,7.55c-.55.56-1.74,2.04-.96,3.86.31.73.95,1.44,1.84,2.04,1.66,1.12,4.65,1.88,7.41,1.88,1.05,0,2.05-.1,2.95-.31,2.93-.65,6-3.1,9.25-5.69,2.59-2.06,6.28-4.67,9.1-5.44.79-.21,1.76-.35,2.54-.35.24,0,.45.01.65.04,1.86.24,3.66.87,6.88,3.28,5.74,4.31,31.1,26.5,31.35,26.72.02.01,1.63,1.41,1.52,3.73-.06,1.3-.78,2.44-2.03,3.24-1.08.69-2.2,1.04-3.33,1.04-1.7,0-2.86-.8-2.94-.85-.09-.07-8.78-8.05-11.98-10.73-.51-.42-1-.8-1.5-.8-.27,0-.5.11-.67.32-.5.62.06,1.48.72,2.04l10.15,10.21s1.27,1.18,1.41,2.75c.08,1.69-.73,3.11-2.41,4.21-1.2.79-2.41,1.19-3.6,1.19-1.56,0-2.66-.71-2.9-.88l-1.46-1.43c-2.66-2.62-5.41-5.33-7.42-7-.49-.41-1.02-.79-1.51-.79-.25,0-.47.09-.64.28-.23.25-.39.71.18,1.47.23.32.51.57.51.57l7.41,8.32c.06.07,1.53,1.82.17,3.55l-.26.33c-.22.24-.46.47-.69.67-1.26,1.04-2.95,1.15-3.62,1.15-.36,0-.7-.03-1-.09-.73-.13-1.22-.33-1.46-.61l-.09-.09c-.4-.42-4.14-4.23-7.23-6.81-.41-.34-.92-.77-1.44-.77-.26,0-.49.1-.67.3-.61.67.31,1.67.7,2.04l6.32,6.97c0,.06-.09.21-.24.42-.23.32-.99,1.08-3.29,1.37-.28.03-.56.05-.84.05-2.36,0-4.89-1.15-6.19-1.84.59-1.25.9-2.63.9-4,0-5.2-4.22-9.43-9.42-9.44-.11,0-.23,0-.34,0,.17-2.37-.17-6.87-4.78-8.85-1.33-.57-2.66-.87-3.94-.87-1.01,0-1.98.17-2.89.52-.96-1.86-2.55-3.21-4.61-3.92-1.15-.4-2.28-.6-3.38-.6-1.92,0-3.69.57-5.27,1.69-1.51-1.88-3.8-2.99-6.2-2.99-2.11,0-4.13.84-5.63,2.33-1.97-1.5-9.77-6.46-30.65-11.2-1-.22-3.26-.87-4.69-1.29,1.96-9.37,7.92-17.94,16.75-24.96h.03ZM311.55,83.48l-.22-.2h-.23c-.18,0-.38.07-.64.26-1.07.75-2.08,1.11-3.12,1.11-.57,0-1.16-.11-1.74-.34-4.84-1.89-4.46-6.45-4.22-7.83.03-.28-.03-.49-.21-.64l-.34-.28-.32.3c-.95.91-2.18,1.41-3.48,1.41-2.77,0-5.03-2.25-5.02-5.03,0-2.77,2.26-5.02,5.04-5.02,2.51,0,4.64,1.88,4.96,4.39l.17,1.35.74-1.14c.08-.13,2.12-3.21,5.85-3.2.71,0,1.45.11,2.19.34,2.98.91,3.48,3.61,3.56,4.73.05.65.52.69.61.69.26,0,.45-.16.58-.3.56-.59,1.78-1.56,3.7-1.56.88,0,1.81.21,2.77.63,4.73,2.03,2.59,8.04,2.56,8.11-.41,1-.42,1.43-.04,1.69l.18.09h.14c.21,0,.48-.09.92-.24.64-.22,1.61-.56,2.52-.56h0c3.56.04,6.46,2.94,6.46,6.46s-2.9,6.45-6.46,6.45-6.32-2.71-6.44-6.16c-.01-.3-.04-1.08-.71-1.08-.27,0-.51.17-.78.41-.77.71-1.74,1.43-3.17,1.43-.65,0-1.35-.15-2.09-.45-3.68-1.49-3.73-4.02-3.58-5.03.04-.27.05-.55-.13-.77h.01ZM334.53,111.52c-43.74,0-79.2-22.69-79.2-50.67,0-1.12.08-2.24.19-3.35.35.09,3.83.91,4.54,1.08,21.33,4.74,28.38,9.67,29.58,10.6-.4.97-.61,2.01-.61,3.07,0,4.41,3.59,8,7.99,8,.49,0,.99-.05,1.47-.14.67,3.25,2.79,5.71,6.03,6.97.95.36,1.9.55,2.85.55.61,0,1.22-.07,1.82-.22.6,1.52,1.94,3.42,4.96,4.64,1.06.42,2.11.65,3.14.65.84,0,1.66-.15,2.44-.44,1.45,3.52,4.88,5.85,8.71,5.85,2.54,0,4.98-1.03,6.76-2.86,1.52.85,4.73,2.38,7.98,2.39.42,0,.81-.03,1.21-.07,3.22-.41,4.72-1.67,5.41-2.65.13-.17.24-.36.33-.54.76.22,1.59.4,2.56.4,1.76,0,3.45-.6,5.16-1.84,1.68-1.21,2.87-2.95,3.05-4.43,0-.02,0-.04,0-.06.57.11,1.15.17,1.73.17,1.81,0,3.6-.56,5.3-1.68,3.29-2.15,3.85-4.97,3.8-6.81.58.12,1.16.18,1.75.18,1.7,0,3.37-.51,4.96-1.53,2.04-1.3,3.26-3.3,3.45-5.62.12-1.58-.27-3.17-1.1-4.54,5.5-2.37,18.06-6.95,32.85-10.28.06.84.1,1.68.1,2.53,0,27.98-35.46,50.67-79.2,50.67v-.02Z"/>
  </g>
  <g>
    <g>
      <path class="st2" d="M411.89,163.03c-4.69-5.88-11.81-8.82-21.37-8.82s-16.67,2.94-21.36,8.82c-4.7,5.87-7.04,12.82-7.04,20.83s2.35,15.12,7.04,20.92c4.69,5.78,11.81,8.68,21.36,8.68s16.68-2.9,21.37-8.68c4.7-5.8,7.03-12.77,7.03-20.92s-2.34-14.96-7.03-20.83ZM400.27,196.75c-2.28,3.01-5.53,4.53-9.8,4.53s-7.52-1.52-9.81-4.53c-2.29-3.01-3.44-7.31-3.44-12.88s1.14-9.85,3.44-12.86,5.57-4.51,9.81-4.51,7.51,1.5,9.8,4.51c2.28,3,3.42,7.3,3.42,12.86s-1.14,9.87-3.42,12.88h0Z"/>
      <path class="st2" d="M292,158.11c-4.76-2.41-10.2-3.63-16.33-3.63-9.42,0-16.07,2.46-19.94,7.36-2.44,3.14-3.8,7.15-4.12,12.03h14.08c.34-2.16,1.03-3.86,2.08-5.12,1.45-1.7,3.92-2.55,7.4-2.55,3.11,0,5.47.43,7.09,1.3,1.6.86,2.41,2.45,2.41,4.73,0,1.88-1.04,3.25-3.14,4.15-1.17.51-3.11.94-5.83,1.28l-4.99.61c-5.67.72-9.97,1.92-12.88,3.59-5.33,3.07-7.99,8.03-7.99,14.89,0,5.28,1.65,9.36,4.97,12.24,3.3,2.89,7.5,4.09,12.58,4.33,31.82,1.43,31.47-16.77,31.76-20.55v-20.93c0-6.72-2.38-11.29-7.13-13.72h0ZM284.6,189.88c-.1,4.88-1.49,8.23-4.17,10.08-2.69,1.84-5.61,2.76-8.8,2.76-2.02,0-3.72-.57-5.13-1.66-1.4-1.11-2.11-2.91-2.11-5.41,0-2.79,1.15-4.85,3.45-6.19,1.36-.78,3.59-1.45,6.7-1.98l3.32-.62c1.66-.31,2.95-.66,3.9-1.02.96-.34,1.89-.81,2.82-1.39v5.42h.02Z"/>
      <path class="st2" d="M219.44,166.95c3.64,0,6.31,1.12,8.04,3.37,1.18,1.66,1.92,3.54,2.2,5.61h15.7c-.85-7.93-3.63-13.45-8.31-16.58-4.7-3.12-10.71-4.69-18.05-4.69-8.65,0-15.43,2.65-20.34,7.95-4.91,5.31-7.38,12.73-7.38,22.26,0,8.44,2.22,15.33,6.67,20.63,4.45,5.3,11.39,7.95,20.82,7.95s16.57-3.18,21.37-9.54c3.01-3.94,4.7-8.12,5.06-12.54h-15.64c-.32,2.92-1.23,5.31-2.75,7.14-1.5,1.83-4.05,2.75-7.65,2.75-5.06,0-8.52-2.31-10.35-6.94-1.01-2.47-1.52-5.74-1.52-9.81s.51-7.68,1.52-10.28c1.91-4.85,5.44-7.29,10.61-7.29h0Z"/>
      <path class="st2" d="M187.09,154.67c-32.25,0-30.33,28.54-30.33,28.54v29h14.64v-27.19c0-4.46.57-7.75,1.67-9.9,2.01-3.81,5.94-5.71,11.78-5.71.44,0,1.02.03,1.73.06.71.04,1.52.1,2.46.21v-14.89c-.65-.04-1.07-.06-1.25-.09-.19-.02-.41-.03-.69-.03h0Z"/>
      <path class="st2" d="M145.02,165.49c-2.53-3.74-5.74-6.49-9.61-8.23-3.88-1.73-8.23-2.59-13.06-2.59-8.15,0-14.77,2.56-19.88,7.7-5.1,5.15-7.66,12.52-7.66,22.16,0,10.28,2.83,17.69,8.49,22.26,5.65,4.55,12.18,6.85,19.58,6.85,8.96,0,15.93-2.71,20.91-8.11,2.69-2.84,4.37-5.66,5.08-8.44h-15.53c-.61.88-1.27,1.63-2,2.21-2.07,1.7-4.88,2.22-8.18,2.22-3.12,0-5.58-.47-7.79-1.86-3.65-2.25-5.71-6.05-5.93-11.61h40.49c.05-4.8-.1-8.48-.49-11.04-.67-4.35-2.16-8.19-4.43-11.49v-.02ZM109.8,178.42c.52-3.62,1.83-6.48,3.87-8.6,2.06-2.11,4.95-3.18,8.68-3.18,3.43,0,6.31,1,8.63,3,2.31,2,3.6,4.93,3.87,8.77h-25.04Z"/>
      <path class="st2" d="M65.73,154.47c-6.79,0-12.67,2.98-16.62,7.75-3.75-4.77-9.53-7.75-16.62-7.75-14.29,0-23.51,10.5-23.51,24.4v33.34h13.38v-33.65c0-6.14,4.16-10.39,10.14-10.39,8.82,0,9.72,7.31,9.72,10.39v33.65h13.38v-33.65c0-6.14,4.26-10.39,10.13-10.39,8.82,0,9.83,7.31,9.83,10.39v33.65h13.36v-33.34c0-14.33-8.6-24.4-23.2-24.4h0Z"/>
      <path class="st2" d="M343.03,147.36l-.02,15.68c-1.63-2.63-3.75-4.68-6.37-6.14-2.61-1.48-5.6-2.22-8.98-2.22-7.31,0-13.13,2.73-17.51,8.15-4.37,5.44-6.56,13.29-6.56,22.77,0,8.23,2.22,14.98,6.66,20.23,4.43,5.24,13.13,7.55,20.86,7.55,26.94,0,26.63-23.1,26.63-23.1v-53.17s-14.73-1.57-14.73,10.26h0ZM340.22,196.87c-2.13,3.06-5.27,4.59-9.38,4.59s-7.18-1.55-9.2-4.61c-2.02-3.09-3.03-7.57-3.03-12.69,0-4.77.99-8.74,2.98-11.96,1.99-3.21,5.1-4.82,9.36-4.82,2.79,0,5.24.88,7.35,2.64,3.43,2.92,5.15,8.18,5.15,14.97,0,4.86-1.08,8.82-3.22,11.88h0Z"/>
    </g>
    <g>
      <path class="st2" d="M463.32,154.34c-12.05-.57-18.14,2.3-22.1,5.33-5.48,4.18-8.82,10.37-8.82,20.26v50.84h7.09c1.9,0,3.8-.66,5.19-1.94,1.57-1.44,2.35-3.2,2.35-5.27v-19c1.73,2.98,4,5.16,6.88,6.59,2.73,1.27,5.87,1.91,9.45,1.91,6.74,0,12.27-2.68,16.56-8.07,4.3-5.53,6.45-12.73,6.45-21.64s-2.03-15.27-6.91-21.2c-3.94-4.8-9.93-7.51-16.14-7.79h0ZM468.32,196.07c-2.15,2.98-5.09,4.46-8.82,4.46-4.01,0-7.1-1.48-9.25-4.46-2.15-2.69-3.23-6.7-3.23-12.1,0-5.78,1-10.04,3-12.73,2.16-2.96,5.17-4.46,9.04-4.46s7.1,1.49,9.25,4.46c2.16,2.98,3.23,7.21,3.23,12.73,0,5.11-1.07,9.12-3.23,12.1Z"/>
      <path class="st2" d="M589.01,159.59c-4.97-3.77-10.06-5.74-18.79-5.51-8.87.24-15.32,2.73-19.33,8.16-4.01,5.44-6.01,12.55-6.01,21.3,0,7.49,1.51,13.53,4.53,18.14,3.03,4.59,6.66,7.74,10.89,9.42,4.21,1.7,8.47,2.05,12.77,1.07,4.29-1,7.71-3.45,10.25-7.41v3.59c-.29,4.52-1.38,7.92-3.27,10.18-1.92,2.25-4.02,3.63-6.35,4.13-2.3.49-4.64.22-6.95-.85-2.33-1.05-4.05-2.58-5.17-4.55h-15.42c3.99,12,11.16,17.3,24.08,18.23,20.83,1.5,27.47-16.14,27.46-25.66v-29.91c0-9.89-3.22-16.22-8.66-20.36l-.02.02ZM582.89,188.97c-.57,3.31-1.48,5.76-2.75,7.3-2.67,3.67-6.84,4.97-12.45,3.93-5.64-1.07-8.46-6.48-8.46-16.22,0-4.52.84-8.56,2.54-12.1,1.69-3.52,4.92-5.3,9.71-5.3,3.52,0,6.2,1.28,8.02,3.81,1.84,2.55,3,5.44,3.49,8.7.49,3.25.45,6.54-.11,9.86h0Z"/>
      <path class="st2" d="M532.36,158.1c-4.76-2.4-10.2-3.63-16.33-3.63-9.42,0-16.06,2.46-19.93,7.37-2.43,3.13-3.8,7.14-4.12,12.02h14.08c.34-2.15,1.03-3.86,2.07-5.11,1.45-1.7,3.92-2.56,7.4-2.56,3.12,0,5.48.43,7.09,1.3,1.6.86,2.4,2.45,2.4,4.73,0,1.87-1.04,3.26-3.14,4.14-1.17.51-3.11.94-5.83,1.28l-4.98.6c-5.67.72-9.98,1.92-12.87,3.59-5.33,3.07-7.99,8.02-7.99,14.88,0,5.28,1.65,9.36,4.97,12.24,3.3,2.89,7.5,4.09,12.59,4.33,31.81,1.42,31.45-16.77,31.74-20.55v-20.93c0-6.71-2.37-11.28-7.12-13.71h-.02ZM524.96,189.87c-.09,4.88-1.49,8.23-4.17,10.08-2.68,1.84-5.61,2.76-8.8,2.76-2.02,0-3.72-.57-5.13-1.66-1.4-1.11-2.11-2.91-2.11-5.4,0-2.79,1.15-4.85,3.45-6.18,1.37-.78,3.59-1.45,6.7-1.98l3.33-.61c1.66-.31,2.96-.65,3.9-1.01.96-.35,1.9-.82,2.82-1.4v5.42-.02Z"/>
      <path class="st2" d="M653.01,162.72c-4.7-5.88-11.82-8.82-21.37-8.82s-16.66,2.93-21.35,8.82c-4.7,5.87-7.04,12.81-7.04,20.83s2.35,15.11,7.04,20.92c4.69,5.78,11.81,8.67,21.35,8.67s16.67-2.9,21.37-8.67c4.69-5.8,7.03-12.77,7.03-20.92s-2.34-14.95-7.03-20.83ZM641.38,196.42c-2.28,3.02-5.53,4.54-9.78,4.54s-7.52-1.52-9.81-4.54c-2.3-3.01-3.45-7.3-3.45-12.87s1.14-9.85,3.45-12.86c2.28-3,5.56-4.51,9.81-4.51s7.51,1.5,9.78,4.51c2.28,3,3.41,7.29,3.41,12.86s-1.13,9.86-3.41,12.87Z"/>
    </g>
  </g>
</svg>