<?xml version="1.0" encoding="utf-8"?>
<svg version="1.1" id="Layer_1" xmlns="http://www.w3.org/2000/svg" xmlns:xlink="http://www.w3.org/1999/xlink" x="0px" y="0px"
	 viewBox="0 0 52 52" style="enable-background:new 0 0 52 52;" xml:space="preserve">
<g>
	<path fill="#066AC4" d="M51,26c0,13.8-11.2,25-25,25S1,39.8,1,26S12.2,1,26,1S51,12.2,51,26z M49.4,26C49.4,13.1,38.9,2.6,26,2.6
		S2.6,13.1,2.6,26S13.1,49.4,26,49.4S49.4,38.9,49.4,26z M33.6,19.4l-6.5,6.5l6.5,6.6c0.3,0.3,0.3,0.8,0,1.1s-0.8,0.3-1.1,0L26,27.1
		l-6.5,6.4c-0.3,0.3-0.8,0.3-1.1,0c-0.3-0.3-0.3-0.8,0-1.1l6.5-6.5l-6.5-6.4c-0.3-0.3-0.3-0.8,0-1.1s0.8-0.3,1.1,0l6.5,6.5l6.5-6.5
		c0.3-0.3,0.8-0.3,1.1,0C33.9,18.7,33.9,19.2,33.6,19.4z"/>
</g>
</svg>
